<svg width="174" height="336" viewBox="0 0 174 336" fill="none" xmlns="http://www.w3.org/2000/svg">
<path d="M47.566 35.0469C47.566 35.0469 48.5079 24.5959 48.8397 24.5235C48.8817 19.1912 58.8766 12.14 61.096 10.604C73.1273 2.28739 80.7045 2.79813 93.079 15.0291C102.845 24.6797 99.5504 41.7475 99.2033 42.9252C101.77 44.3011 99.3749 47.903 96.6293 47.3617C96.6293 47.3617 97.4301 49.6562 94.9209 50.6129C92.4117 51.5696 91.607 50.7311 91.607 50.7311C91.607 50.7311 93.3231 53.2466 89.7308 54.0318C89.7308 54.0318 91.3172 54.9542 88.8652 55.8041C86.4132 56.6541 84.3501 53.0256 84.3501 53.0256C84.3501 53.0256 84.6476 55.8194 82.2947 56.4597C79.9418 57.1 77.2229 54.3177 77.2229 54.3177C77.2229 54.3177 74.7709 57.4126 72.5553 57.0695C70.3397 56.7227 68.9516 54.2605 68.9516 54.2605C68.9516 54.2605 69.2147 56.0252 67.0182 55.7165C65.0276 55.4382 65.2145 52.431 65.2678 51.8669C65.203 52.4386 64.7988 55.503 63.5328 55.1714C61.054 54.5235 61.6413 52.511 61.1951 53.1209C60.749 53.7269 58.5372 53.1666 56.6839 51.8898C54.9945 50.7273 55.8335 48.7262 55.8335 48.7262C55.8335 48.7262 54.167 49.2522 53.0497 47.3541C53.0497 47.3541 52.9353 50.1479 50.8074 48.8749C48.9427 47.7581 51.0591 44.5222 51.0591 44.5222C51.0591 44.5222 49.507 45.5894 47.6537 44.4231C46.1665 43.4893 48.363 41.9037 48.363 41.9037C48.363 41.9037 45.6097 42.5212 44.7937 41.271C43.9776 40.0209 47.566 35.0431 47.566 35.0431V35.0469Z" fill="url(#paint0_linear_90_473)"/>
<path d="M50.5213 32.9696C50.5213 33.3698 50.5366 33.7319 50.5633 34.0559V34.0711C50.7502 36.3961 51.4823 37.0517 51.6501 38.1113C51.795 39.0299 52.634 40.9585 54.0221 39.3043L54.0259 39.3005C54.0259 39.3005 54.6627 31.7995 54.453 30.3855C54.453 30.3855 54.1632 28.2663 53.1145 27.7899C51.7683 27.1762 50.5099 29.4326 50.5175 32.9658L50.5213 32.9696Z" fill="url(#paint1_linear_90_473)"/>
<path d="M54.3693 34.6429C54.3693 34.6429 52.8172 30.1606 51.8066 29.7223C50.7961 29.2878 50.7732 32.882 50.8037 34.0826C50.8304 35.287 51.0402 36.0265 51.0402 36.0265C51.0402 36.0265 50.9906 34.6048 51.1126 33.4766C51.288 31.8605 51.8982 30.5418 52.3214 30.7438C52.7447 30.9458 53.0193 33.0573 53.0231 33.2898C53.0231 33.5261 52.6303 33.8844 52.4549 35.1346C52.2795 36.3847 52.5274 37.8102 52.7791 37.8331C53.0308 37.856 53.0803 36.8307 53.2634 35.6644C53.4464 34.4981 54.1138 34.8373 54.3044 35.6415L54.3693 34.6391V34.6429Z" fill="url(#paint2_linear_90_473)" style="mix-blend-mode:multiply"/>
<path d="M54.3044 35.6415C54.3044 35.6415 53.9117 34.4447 53.496 34.8944C53.0765 35.3442 53.1032 36.7811 52.8172 36.9069C52.5312 37.0327 52.3596 35.8511 52.5884 34.8297C52.8172 33.8082 53.2786 32.9315 53.7019 33.1755L54.3693 34.6429L54.3044 35.6453V35.6415Z" fill="url(#paint3_linear_90_473)" style="mix-blend-mode:multiply"/>
<path d="M50.5671 34.0712C50.754 36.3962 51.4824 37.0517 51.654 38.1113C51.7989 39.0299 52.6378 40.9585 54.0259 39.3043C53.9496 39.3653 53.206 39.9332 52.6073 39.5292C51.9743 39.0985 51.8866 38.2409 51.6997 37.5548C51.5129 36.8726 50.8417 36.3161 50.5671 34.0674V34.0712Z" fill="url(#paint4_linear_90_473)" style="mix-blend-mode:multiply"/>
<path d="M88.8272 54.958C91.0275 55.442 93.6816 55.1714 94.7646 53.3305C94.7837 53.3343 97.6704 54.0089 99.6229 49.3323C101.316 45.2731 100.275 43.2263 100.275 43.2263C100.275 43.2263 101.919 41.8618 102.17 40.7984C102.738 38.401 102.018 34.3456 100.309 34.277C98.5971 34.2084 97.3577 35.4852 97.3577 35.4852C97.3577 35.4852 96.2252 32.7219 94.8523 32.9697C93.4795 33.2174 90.0169 37.9208 90.0169 37.9208C90.0169 37.9208 88.0645 36.259 87.2599 37.269C86.4552 38.279 85.437 40.8365 85.437 40.8365C85.437 40.8365 83.1719 42.0219 83.5265 44.7433C83.5265 44.7433 82.6113 46.5956 84.396 48.1278C84.7811 48.4594 85.296 48.7758 85.9671 49.054C85.9671 49.054 84.9108 50.8645 85.4942 52.9036C85.7459 53.7841 87.1531 54.5883 88.8234 54.958H88.8272Z" fill="#010101"/>
<path d="M85.4748 201.455L148.812 167.911L148.076 180.603L94.1313 218.386C91.2254 212.749 88.3311 207.112 85.4748 201.455Z" fill="url(#paint5_linear_90_473)"/>
<path d="M85.4748 201.455L129.684 178.042C131.69 181.712 133.623 185.558 135.835 189.179L94.1313 218.39C91.2255 212.753 88.3311 207.115 85.4749 201.459L85.4748 201.455Z" fill="#201829"/>
<path d="M147.328 181.438L144.049 169.664L151.161 164.168L172.321 198.418C172.321 198.418 167.452 198.425 147.328 181.434V181.438Z" fill="#4296D2"/>
<path d="M172.321 198.418L151.161 164.168L153.529 162.335L173.771 197.11L172.321 198.418Z" fill="#2B2238"/>
<path d="M149.83 183.801C150.287 182.059 151.252 180.523 152.023 178.911C152.091 178.766 152.309 178.891 152.24 179.036C151.477 180.63 150.524 182.146 150.07 183.865C150.028 184.022 149.784 183.957 149.826 183.797L149.83 183.801Z" fill="#2B2238"/>
<path d="M151.725 185.626C152.183 183.885 153.148 182.348 153.918 180.736C153.987 180.591 154.204 180.717 154.135 180.862C153.373 182.455 152.419 183.972 151.965 185.691C151.924 185.847 151.679 185.783 151.721 185.623L151.725 185.626Z" fill="#2B2238"/>
<path d="M153.918 187.566C154.376 185.825 155.34 184.289 156.111 182.676C156.179 182.531 156.397 182.657 156.328 182.802C155.565 184.395 154.612 185.912 154.158 187.631C154.116 187.787 153.872 187.723 153.914 187.563L153.918 187.566Z" fill="#2B2238"/>
<path d="M48.9464 59.1772L19.5679 63.9721L20.4183 32.0358C17.1083 30.9724 14.1834 32.5504 10.9725 31.1973C9.27553 38.3057 3.15118 69.8875 5.33246 76.7366C8.7569 87.485 47.0282 75.8105 47.0282 75.8105L48.9502 59.1811L48.9464 59.1772Z" fill="url(#paint6_linear_90_473)"/>
<path d="M10.862 30.8581C10.862 30.8581 9.46245 20.4261 10.7094 20.6243C11.9564 20.8187 12.6276 25.7126 12.6276 25.7126C12.6276 25.7126 12.1318 17.659 13.0928 17.6476C14.0538 17.6399 16.0215 25.4458 16.0215 25.4458C16.0215 25.4458 15.9033 16.0124 16.6812 16.1344C17.4592 16.2564 19.057 25.442 19.057 25.442C19.057 25.442 20.1285 18.589 21.3755 18.7834C22.6225 18.9778 21.1696 29.2801 21.1696 29.2801C21.1696 29.2801 24.5216 27.2524 25.3071 28.3311C26.0965 29.4135 20.5099 33.4842 20.5099 33.4842L19.5718 67.0022L11.4645 39.2471L10.862 30.8543V30.8581Z" fill="url(#paint7_linear_90_473)"/>
<path d="M24.9524 167.369L47.318 313.383L33.7919 313.569L6.94933 207.474L24.9524 167.369Z" fill="url(#paint8_linear_90_473)"/>
<path d="M25.4826 296.235L48.5994 172.286L20.9751 161.054L12.9365 294.116C17.1465 294.634 21.3641 295.518 25.4864 296.231L25.4826 296.235Z" fill="#201829"/>
<path d="M36.9342 91.5747L33.9941 129.03L80.8303 130.131L71.1099 104.751L36.9342 91.5747Z" fill="#F78E1E"/>
<path d="M67.0257 46.3631L62.4191 60.9343L50.7959 59.4402L61.8967 78.4518L85.1928 68.6068L76.1665 64.4676L80.5748 44.404L67.0257 46.3631Z" fill="url(#paint9_linear_90_473)"/>
<path d="M77.829 11.1376C77.829 11.1376 60.8403 9.10227 54.9142 28.3921C48.9844 47.6781 62.6516 54.817 72.2538 54.6759C81.8559 54.5349 89.6315 45.3836 91.8051 39.7045C93.9826 34.0254 93.1208 13.737 77.829 11.1414V11.1376Z" fill="url(#paint10_linear_90_473)"/>
<path d="M35.9808 106.519C35.9808 106.519 49.0455 114.432 74.2254 114.051C74.2254 114.051 93.1742 137.697 92.503 163.882C92.034 182.261 83.9076 226.192 83.9076 226.192C83.9076 226.192 60.6115 245.184 54.7847 228.44C48.9578 211.697 43.3749 145.339 43.3749 145.339L56.3481 161.084L40.8962 241.529L52.6835 289.092L15.1824 287.754C15.1824 287.754 3.04817 262.294 1.30545 236.662C-1.39825 196.882 16.662 142.892 35.9808 106.519Z" fill="#F78E1E"/>
<path d="M70.1718 226.775C66.7016 217.768 62.7967 207.843 60.848 197.846C92.0341 186.065 122.724 174.581 122.724 174.581L134.027 206.353L69.6875 234.463C68.1583 231.147 71.4874 230.186 70.1718 226.775Z" fill="#F78E1E"/>
<path d="M130.404 211.99L111.391 177.546L124.955 172.145L139.408 208.003L130.404 211.99Z" fill="#F78E1E"/>
<path d="M100.027 78.326L145.765 137.842C145.765 137.842 152.229 133.787 153.712 135.243C157.56 139.012 160.611 151.864 153.754 139.104C153.754 139.104 160.286 159.377 150.848 139.839C150.848 139.839 154.784 158.447 147.874 142.271C147.874 142.271 149.895 157.982 145.822 143.906C145.822 143.906 143.5 147.1 140.533 144.432C137.562 141.764 87.847 94.0483 86.0242 88.0148C84.2013 81.9812 100.031 78.326 100.031 78.326H100.027Z" fill="url(#paint11_linear_90_473)"/>
<path d="M47.3257 151.609C37.4566 144.123 30.2493 135.795 25.0821 128.283C12.7229 158.34 4.14273 192.068 0.260681 222.883C-0.566833 255.723 15.1824 287.754 15.1824 287.754L52.6835 289.092L40.5798 241.468L49.5375 195.635L49.7777 194.092C49.324 161.378 47.3257 151.617 47.3257 151.617V151.609Z" fill="#201829"/>
<path d="M12.7228 285.609L54.0715 287.263L54.8647 295.69L16.7802 301.746L12.7228 285.609Z" fill="#CC7620"/>
<path d="M73.0357 109.778L71.11 104.747L36.9342 91.5747L35.7444 106.714C45.8652 109.153 60.4096 111.619 73.0357 109.778Z" fill="#201829"/>
<path d="M34.9016 312.357L47.0511 310.97L51.3679 318.852L14.2024 334.369C14.2024 334.369 14.9575 329.562 34.9054 312.361L34.9016 312.357Z" fill="#4296D2"/>
<path d="M14.1986 334.365L51.364 318.848L52.8017 321.474L15.2663 336L14.1986 334.365Z" fill="#2B2238"/>
<path d="M32.1865 314.461C33.8263 315.182 35.1839 316.371 36.6482 317.377C36.7817 317.469 36.6558 317.686 36.5224 317.594C35.058 316.588 33.7005 315.399 32.0607 314.679C31.912 314.614 32.0416 314.397 32.1865 314.461Z" fill="#2B2238"/>
<path d="M30.0814 316.047C31.7212 316.767 33.0787 317.956 34.5431 318.963C34.6765 319.054 34.5507 319.271 34.4172 319.18C32.9529 318.174 31.5953 316.985 29.9556 316.264C29.8068 316.199 29.9365 315.982 30.0814 316.047Z" fill="#2B2238"/>
<path d="M27.82 317.903C29.4598 318.624 30.8174 319.813 32.2817 320.819C32.4152 320.91 32.2893 321.128 32.1559 321.036C30.6915 320.03 29.3339 318.841 27.6942 318.12C27.5454 318.056 27.6751 317.838 27.82 317.903Z" fill="#2B2238"/>
<path d="M46.9825 59.4098L31.6259 61.1059L32.911 83.1895L46.9825 59.4098Z" fill="#161C40"/>
<path d="M58.1176 60.3474C58.1176 60.3474 52.4547 58.1748 47.5887 59.1277C42.7228 60.0806 33.3152 73.6113 30.6572 79.6257C27.9993 85.6402 26.0735 95.1956 26.0735 95.1956C26.0735 95.1956 61.4276 113.155 76.7766 108.269L86.8401 90.5532L94.1657 98.5573L110.274 86.0747C110.274 86.0747 101.419 71.4006 91.0883 68.9308L81.6577 66.1713C81.6577 66.1713 57.9002 72.7422 58.1252 60.3474H58.1176Z" fill="#161C40"/>
<path d="M95.5386 40.3296C95.3556 40.8136 95.1687 41.2481 94.9819 41.6293L94.9704 41.6483C93.6281 44.385 92.1676 44.85 91.4202 46.0658C90.7719 47.114 88.5677 49.0769 87.0996 46.447C87.0958 46.4432 87.0919 46.4394 87.0919 46.4394C87.0919 46.4394 89.4563 37.0441 90.4287 35.4242C90.4287 35.4242 91.8473 32.9849 93.7311 32.8744C96.1526 32.7333 97.1441 36.0417 95.5386 40.3296Z" fill="url(#paint12_linear_90_473)"/>
<path d="M88.6516 40.6269C88.6516 40.6269 93.1476 35.8816 94.9551 35.8092C96.7627 35.7368 95.1801 40.1085 94.5928 41.5569C94.0056 43.0052 93.3382 43.8095 93.3382 43.8095C93.3382 43.8095 94.059 42.1057 94.3679 40.6841C94.814 38.6411 94.4365 36.7659 93.6738 36.8192C92.9111 36.8726 91.5154 39.3119 91.4087 39.5978C91.2981 39.8837 91.7671 40.4973 91.4849 42.0943C91.2027 43.6913 90.1655 45.3112 89.7498 45.2235C89.338 45.1359 89.7193 43.8704 89.9519 42.3725C90.1846 40.8746 88.9719 40.9852 88.3007 41.8732L88.6516 40.6269Z" fill="url(#paint13_linear_90_473)" style="mix-blend-mode:multiply"/>
<path d="M88.3007 41.8732C88.3007 41.8732 89.4637 40.5964 89.929 41.332C90.3942 42.0676 89.704 43.798 90.1044 44.0801C90.5048 44.3621 91.3094 43.0014 91.4047 41.6598C91.5001 40.3143 91.1607 39.0451 90.3751 39.148L88.6477 40.6269L88.2968 41.8732H88.3007Z" fill="url(#paint14_linear_90_473)" style="mix-blend-mode:multiply"/>
<path d="M94.9704 41.6483C93.6281 44.385 92.1676 44.85 91.4202 46.0658C90.7719 47.114 88.5677 49.0769 87.0996 46.447C87.1949 46.5537 88.1215 47.5828 89.2579 47.3579C90.4592 47.1216 90.9854 46.1192 91.5955 45.3722C92.2019 44.6251 93.5213 44.2554 94.9704 41.6483Z" fill="url(#paint15_linear_90_473)" style="mix-blend-mode:multiply"/>
<path d="M99.8666 31.3879C99.0696 33.084 98.2535 30.7362 98.2535 30.7362C97.2888 33.3775 95.2753 33.267 95.2753 33.267C95.2753 33.267 96.9989 34.5057 96.549 36.3619C96.1028 38.2181 92.7012 37.2843 92.7012 37.2843C92.7012 37.2843 92.8194 40.8213 91.0958 40.909C89.3683 40.9966 89.8602 39.5635 89.8602 39.5635C87.7095 39.9294 89.0899 37.9818 89.0899 37.9818C88.5408 37.1737 90.764 35.4471 90.764 35.4471C89.7573 35.0812 90.4056 33.0726 90.4056 33.0726C89.8564 33.9378 88.2853 32.9659 88.2853 32.9659C88.2853 32.9659 87.5074 34.1779 86.3481 33.7548C85.185 33.328 86.7333 28.9219 86.7333 28.9219C85.6846 28.274 87.8925 23.7269 87.8925 23.7269C87.8925 23.7269 86.9201 24.1385 86.4892 23.5935C86.0659 23.0599 87.0498 21.3943 87.0879 21.3295C87.0574 21.3676 86.5426 21.9508 84.796 21.4629C83.0266 20.9674 83.5452 18.0974 83.5719 18.0669C81.8521 18.4175 80.3992 16.9006 80.3992 16.9006C80.3992 16.9006 79.5374 18.3413 78.8357 18.1279C78.134 17.9144 76.3379 15.0101 76.3379 15.0101C74.8087 15.2959 73.4321 14.5032 73.4321 14.5032C73.577 14.6289 71.7122 17.3313 70.553 16.7595C69.4395 16.2107 69.2907 15.6695 69.2793 15.6313C69.2717 15.6847 69.1191 16.8548 67.8264 18.8406C66.5031 20.8759 65.0045 19.6486 65.0045 19.6486C65.0045 19.6486 64.9968 22.107 64.524 23.0141C64.0511 23.9213 63.3037 24.6111 63.3037 24.6111C63.3037 24.6111 62.7126 26.757 61.8966 26.292C61.0805 25.8308 61.2483 25.0418 61.2368 24.7979C61.2254 24.554 60.6991 25.4535 59.3721 25.7165C58.045 25.9795 58.5789 24.3977 58.5789 24.3977C57.9154 25.1905 56.8629 24.7369 56.8629 24.7369C56.8629 24.7369 56.6798 27.3516 55.8981 28.1215C54.1172 29.8786 53.5109 26.2539 53.5109 26.2539C52.2677 25.686 53.1219 24.0775 53.1219 24.0775C53.1219 24.0775 52.7329 24.4282 52.0351 23.6392C51.341 22.8464 51.7186 20.0031 52.6834 18.9664C53.5795 18.0059 53.6672 18.9892 53.6749 19.1379C53.6749 19.1493 53.6749 19.1569 53.6749 19.1569C53.6749 19.1569 51.6614 17.5599 51.8559 16.5385C52.0503 15.5208 53.3011 13.8209 53.3011 13.8209C53.3011 13.8209 52.2753 12.6279 52.3173 11.4502C52.3592 10.2762 53.0761 7.58916 54.1706 7.72256C55.2307 7.85596 55.3032 8.71735 55.2994 8.80502C55.2994 8.80502 55.8981 6.98695 56.4434 6.45716C56.798 6.11412 58.0145 5.63769 58.4607 5.65675C59.5399 5.7063 60.2034 6.37712 60.2034 6.37712C61.3055 5.82445 62.4457 4.58192 62.4457 4.58192C62.4457 4.58192 61.6906 3.93397 62.3618 3.06877C63.8223 1.17828 68.0857 0.381685 70.2098 0.0691451C73.0965 -0.357739 74.4732 1.33074 74.4465 1.3498C77.3027 1.17828 79.3772 1.92533 79.3772 1.92533C79.3772 1.92533 79.3848 1.54799 80.5403 1.41078C81.6462 1.28119 82.3288 1.81098 83.0114 2.84389L83.0228 2.86295C83.0228 2.86295 83.8961 2.24168 85.0782 3.09926C86.4854 4.11692 87.3663 7.01363 86.657 10.7298C87.1146 10.867 87.3625 10.9699 87.9116 11.271C93.7804 9.11375 93.5669 13.5503 93.5669 13.5503C93.5669 13.5503 94.505 13.4055 96.1028 13.9848C97.6548 14.5451 97.6091 14.8462 97.4756 15.4027C97.3383 15.9744 96.1676 15.9629 96.1676 15.9629C99.4815 17.7924 98.9514 17.6514 98.9514 17.6514C100.137 18.6615 100.088 19.5762 99.9886 19.9726C99.9543 20.106 99.9162 20.1822 99.9162 20.1822C99.9162 20.1822 101.903 21.6687 101.686 22.7626C101.468 23.8565 100.111 23.281 100.111 23.281C100.263 24.2071 99.9543 25.24 99.6721 25.9337C99.4738 26.4178 99.2908 26.7379 99.2908 26.7379C99.2908 26.7379 100.664 29.6956 99.8666 31.3917V31.3879Z" fill="#010101"/>
<path d="M99.8666 31.3879C99.0696 33.084 98.2535 30.7362 98.2535 30.7362C97.2888 33.3775 95.2753 33.267 95.2753 33.267C95.2753 33.267 96.9989 34.5057 96.549 36.3619C96.1028 38.2181 92.7012 37.2843 92.7012 37.2843C92.7012 37.2843 92.8194 40.8213 91.0958 40.909C89.3683 40.9966 89.8602 39.5635 89.8602 39.5635C87.7095 39.9294 89.0899 37.9818 89.0899 37.9818C88.5408 37.1737 90.764 35.4471 90.764 35.4471C89.7573 35.0812 90.4056 33.0726 90.4056 33.0726C89.8564 33.9378 88.2853 32.9659 88.2853 32.9659C88.2853 32.9659 87.5074 34.1779 86.3481 33.7548C85.185 33.328 86.7333 28.9219 86.7333 28.9219C85.6846 28.274 87.8925 23.7269 87.8925 23.7269C87.8925 23.7269 86.9201 24.1385 86.4892 23.5935C86.0583 23.0485 87.0881 21.3256 87.0881 21.3256C87.0881 21.3256 86.596 21.966 84.796 21.4629C83.0266 20.9674 83.5452 18.0974 83.5719 18.0669C81.8521 18.4175 80.3992 16.9006 80.3992 16.9006C80.3992 16.9006 79.5374 18.3413 78.8357 18.1279C78.134 17.9144 76.3379 15.0101 76.3379 15.0101C74.8087 15.2959 73.4321 14.5032 73.4321 14.5032C73.577 14.6289 71.7122 17.3313 70.553 16.7595C69.4395 16.2107 69.2907 15.6695 69.2793 15.6313C69.2717 15.6847 69.1191 16.8548 67.8264 18.8406C66.5031 20.8759 65.0045 19.6486 65.0045 19.6486C65.0045 19.6486 64.9968 22.107 64.524 23.0141C64.0511 23.9213 63.3037 24.6111 63.3037 24.6111C63.3037 24.6111 62.7126 26.757 61.8966 26.292C61.0805 25.8308 61.2483 25.0418 61.2368 24.7979C61.2254 24.554 60.6991 25.4535 59.3721 25.7165C58.045 25.9795 58.5789 24.3977 58.5789 24.3977C57.9154 25.1905 56.8629 24.7369 56.8629 24.7369C56.8629 24.7369 56.6798 27.3516 55.8981 28.1215C54.1172 29.8786 53.5109 26.2539 53.5109 26.2539C52.2677 25.686 53.1219 24.0775 53.1219 24.0775C53.1219 24.0775 52.7329 24.4282 52.0351 23.6392C51.341 22.8464 51.7186 20.0031 52.6834 18.9664C53.6482 17.9297 53.6749 19.1569 53.6749 19.1569C53.6749 19.1569 51.6614 17.5599 51.8559 16.5385C52.0503 15.5208 53.3011 13.8209 53.3011 13.8209C53.3011 13.8209 52.2753 12.6279 52.3173 11.4502C52.3592 10.2762 53.0761 7.58916 54.1706 7.72256C55.2307 7.85596 55.3032 8.71735 55.2994 8.80502C55.5205 10.2305 62.9798 10.4172 62.9798 10.4172C62.9798 10.4172 61.5269 11.736 64.0323 12.0523C67.1745 12.4487 69.943 9.86838 69.943 9.86838C69.943 9.86838 72.8984 11.5302 75.1979 11.4578C81.9438 11.2405 86.0394 9.92555 86.9013 8.50768L86.657 10.7298L87.9116 11.271C87.9116 11.271 86.1081 11.8198 85.8488 14.0534C85.7344 15.0291 89.2617 16.2488 89.7804 15.2959C89.7804 15.2959 89.4257 17.4227 91.7328 17.5065C91.7328 17.5065 89.9024 17.9906 90.3867 20.0717C90.8672 22.1527 99.1728 22.8388 99.9202 20.186C99.9202 20.186 101.907 21.6725 101.69 22.7664C101.472 23.8603 100.115 23.2847 100.115 23.2847C100.374 24.855 99.2948 26.7417 99.2948 26.7417C99.2948 26.7417 100.668 29.6994 99.8706 31.3955L99.8666 31.3879Z" fill="#010101"/>
<path d="M99.8666 31.3879C99.0696 33.084 98.2535 30.7362 98.2535 30.7362C97.2888 33.3775 95.2753 33.267 95.2753 33.267C95.2753 33.267 96.9989 34.5057 96.549 36.3619C96.1028 38.2181 92.7012 37.2843 92.7012 37.2843C92.7012 37.2843 92.8194 40.8213 91.0958 40.909C89.3683 40.9966 89.8602 39.5635 89.8602 39.5635C87.7095 39.9294 89.0899 37.9818 89.0899 37.9818C88.5408 37.1737 90.764 35.4471 90.764 35.4471C89.7573 35.0812 90.4056 33.0726 90.4056 33.0726C89.8564 33.9378 88.2853 32.9659 88.2853 32.9659C88.2853 32.9659 87.5074 34.1779 86.3481 33.7548C85.185 33.328 86.7333 28.9219 86.7333 28.9219C85.6846 28.274 87.8925 23.7269 87.8925 23.7269C87.8925 23.7269 86.9201 24.1385 86.4892 23.5935C86.0659 23.0599 87.0498 21.3943 87.0879 21.3295C87.0574 21.3676 86.5426 21.9508 84.796 21.4629C83.0266 20.9674 83.5452 18.0974 83.5719 18.0669C81.8521 18.4175 80.3992 16.9006 80.3992 16.9006C80.3992 16.9006 79.5374 18.3413 78.8357 18.1279C78.134 17.9144 76.3379 15.0101 76.3379 15.0101C74.8087 15.2959 73.4321 14.5032 73.4321 14.5032C73.577 14.6289 71.7122 17.3313 70.553 16.7595C69.4395 16.2107 69.2907 15.6695 69.2793 15.6313C69.2717 15.6847 69.1191 16.8548 67.8264 18.8406C66.5031 20.8759 65.0045 19.6486 65.0045 19.6486C65.0045 19.6486 64.9968 22.107 64.524 23.0141C64.0511 23.9213 63.3037 24.6111 63.3037 24.6111C63.3037 24.6111 62.7126 26.757 61.8966 26.292C61.0805 25.8308 61.2483 25.0418 61.2368 24.7979C61.2254 24.554 60.6991 25.4535 59.3721 25.7165C58.045 25.9795 58.5789 24.3977 58.5789 24.3977C57.9154 25.1905 56.8629 24.7369 56.8629 24.7369C56.8629 24.7369 56.6798 27.3516 55.8981 28.1215C54.1172 29.8786 53.5109 26.2539 53.5109 26.2539C52.2677 25.686 53.1219 24.0775 53.1219 24.0775C53.1219 24.0775 52.7329 24.4282 52.0351 23.6392C51.341 22.8464 51.7186 20.0031 52.6834 18.9664C53.5795 18.0059 53.6672 18.9892 53.6749 19.1379C53.6749 19.1493 53.6749 19.1569 53.6749 19.1569C53.3431 21.0474 55.1434 19.599 55.1434 19.599C55.1434 19.599 55.1281 20.7653 56.3789 20.4185C56.3065 20.4414 55.3874 20.7615 56.356 21.2113C57.3628 21.6801 58.4687 19.984 58.4687 19.984C58.4687 19.984 58.8386 21.0093 60.0855 21.0969C60.0855 21.0969 58.7508 21.6496 60.2228 22.0917C61.6948 22.5339 61.3173 19.5609 61.3173 19.5609C61.3173 19.5609 62.1372 20.4299 63.121 19.5266C64.1087 18.6233 64.0172 16.5613 64.0172 16.5613C64.0172 16.5613 64.3794 17.9982 66.0154 17.7886C67.6513 17.579 68.8754 14.7127 68.8754 14.7127C68.8754 14.7127 69.4551 15.4026 70.1949 15.6389C70.9309 15.8714 71.644 13.5159 71.644 13.5159C71.644 13.5159 71.6745 14.3964 73.4363 13.7675C73.4363 13.7675 73.2151 14.3621 74.424 14.4383C75.6328 14.5145 77.2077 13.0967 77.2077 13.0967C77.2077 13.0967 77.0133 15.4255 77.9399 15.8714C78.8666 16.3174 79.1945 13.0319 79.1945 13.0319C79.1945 13.0319 80.2089 14.6937 81.3224 14.2401C82.4359 13.7866 82.7868 12.7727 82.7868 12.7727C82.7868 12.7727 82.2109 14.4002 83.5037 14.6175C84.743 14.8233 85.3646 13.9771 85.418 13.9047C85.3417 14.0343 83.9193 16.5384 85.7498 17.3579C85.5286 17.2626 83.8126 16.5575 84.1405 17.7047C84.4913 18.932 86.4896 18.0821 86.4896 18.0821C86.4896 18.0821 85.7116 18.9663 86.5582 19.6791C87.3361 20.3346 87.8128 19.8201 87.8891 19.7286C87.7785 19.8849 86.7413 21.4171 88.4725 22.3319C88.3848 22.2937 87.2446 21.8326 87.5077 22.5834C87.7823 23.3648 89.239 23.5973 89.239 23.5973C89.239 23.5973 87.9997 24.4663 88.5488 25.1714C88.7662 25.4496 89.1246 25.4954 89.4831 25.4458C88.4153 25.8918 87.0387 26.7493 87.6908 28.0681C88.442 29.5813 89.8759 28.7465 90.5775 28.2053C90.1161 28.6589 89.506 29.4783 90.1657 30.1835C91.1381 31.224 92.816 28.9104 92.816 28.9104C92.816 28.9104 92.6825 30.1987 94.2041 30.0767C94.2041 30.0767 92.4995 31.2202 93.4948 31.8529C94.4939 32.4856 97.4531 32.0968 96.7629 30.5989C96.7629 30.5989 97.9794 29.8061 97.3044 28.8113C97.3044 28.8113 99.2187 28.8647 99.2797 26.7379C99.2797 26.7379 100.653 29.6956 99.8556 31.3917L99.8666 31.3879Z" fill="#010101"/>
<path d="M75.0225 8.06937C75.0225 8.06937 76.0788 8.74019 74.9462 8.94982C73.8136 9.15945 72.0442 8.19896 72.0442 8.19896C68.6465 8.35904 67.6702 7.56245 68.3109 6.27036C68.3109 6.27036 66.3432 3.43082 69.6265 3.58709C70.4578 3.62521 69.9926 4.30746 69.9774 4.31889C71.701 4.21598 71.3845 5.02401 71.3845 5.02401C71.3845 5.02401 73.6802 3.94156 74.3818 3.92631C81.5396 3.75861 78.7596 5.79012 78.7596 5.79012C85.5475 8.92314 75.0149 8.07318 75.0149 8.07318L75.0225 8.06937Z" fill="#010101"/>
<path d="M64.143 35.6148C64.6388 35.5843 63.5176 31.4413 60.7605 30.1644C57.4276 28.6246 55.9366 31.609 55.8107 32.2569C55.6811 32.9049 61.7635 35.7482 64.1468 35.611L64.143 35.6148Z" fill="url(#paint16_linear_90_473)"/>
<path d="M60.1822 34.8964C58.9108 34.6977 58.0443 33.4879 58.2468 32.1943C58.4492 30.9007 59.6439 30.0132 60.9153 30.2119C62.1867 30.4107 63.0532 31.6205 62.8508 32.9141C62.6483 34.2076 61.4536 35.0952 60.1822 34.8964Z" fill="url(#paint17_linear_90_473)"/>
<path d="M60.2032 34.7608C59.0068 34.5738 58.1915 33.4342 58.3822 32.2155C58.5729 30.9968 59.6974 30.1604 60.8939 30.3475C62.0903 30.5345 62.9057 31.6741 62.7149 32.8928C62.5242 34.1116 61.3997 34.9479 60.2032 34.7608Z" fill="url(#paint18_linear_90_473)"/>
<path d="M59.1587 32.2302C58.9833 33.0116 59.46 33.7853 60.2265 33.9607C60.993 34.136 61.7557 33.6443 61.9349 32.8668C62.1141 32.0892 61.6336 31.3117 60.8671 31.1364C60.1006 30.961 59.338 31.4527 59.1587 32.2302Z" fill="url(#paint19_linear_90_473)" style="mix-blend-mode:multiply"/>
<path d="M64.1926 34.8373C64.1926 34.8373 63.9295 29.3259 60.8482 28.1367C57.7632 26.9475 56.0929 31.5746 56.0929 31.5746C56.0929 31.5746 57.4123 29.242 60.3944 30.092C63.3803 30.9419 64.1926 34.8373 64.1926 34.8373Z" fill="url(#paint20_linear_90_473)"/>
<path d="M64.2346 35.066L63.5749 35.5996C63.5749 35.5996 64.2079 35.8092 64.3147 35.6415C64.4214 35.4738 64.2346 35.066 64.2346 35.066Z" fill="#D86B7C"/>
<path d="M63.1324 35.5614C63.1324 35.5614 60.5431 35.3747 58.48 34.4485C56.417 33.5185 55.8946 32.4551 55.8946 32.4551C55.8946 32.4551 58.9987 34.5476 63.1324 35.5614Z" fill="#D86B7C"/>
<path d="M59.0484 31.7386C59.1589 31.8948 58.5145 31.7767 58.0797 31.4794C57.6946 31.2126 57.5497 30.8886 57.6031 30.8467C57.6565 30.8086 58.6174 31.1249 59.0484 31.7386Z" fill="white"/>
<path d="M59.3839 31.9444C59.5784 31.9215 59.7691 32.0663 59.7538 32.1654C59.7386 32.2645 59.4869 32.337 59.3953 32.2722C59.3 32.2074 59.2771 31.9558 59.3839 31.9444Z" fill="white"/>
<path d="M64.2346 35.066C64.2346 35.066 62.8884 31.9977 60.4897 30.9381C58.0911 29.8786 56.5543 31.0449 56.5543 31.0449C56.5543 31.0449 57.3246 29.2611 60.5546 30.2559C63.7845 31.2469 64.2346 35.066 64.2346 35.066Z" fill="#CC78B1"/>
<path d="M64.2346 35.066C64.2346 35.066 63.5023 31.2583 60.1618 30.2292C57.1797 29.3145 55.9403 31.8758 55.9403 31.8758C55.9403 31.8758 56.1577 29.4364 58.3695 29.3564C60.4707 29.2802 63.6397 31.1287 64.2346 35.066Z" fill="#401432"/>
<path d="M74.2868 37.2004C73.8254 37.0213 76.1592 33.4194 79.1718 33.0459C82.8136 32.5961 83.3208 35.8969 83.2484 36.5524C83.1721 37.208 76.5139 38.0618 74.2868 37.2004Z" fill="url(#paint21_linear_90_473)"/>
<path d="M78.2812 37.7249C77.0099 37.5259 76.1436 36.316 76.3462 35.0224C76.5489 33.7288 77.7438 32.8415 79.0151 33.0405C80.2864 33.2395 81.1528 34.4494 80.9501 35.743C80.7474 37.0365 79.5525 37.9239 78.2812 37.7249Z" fill="url(#paint22_linear_90_473)"/>
<path d="M78.3062 37.5915C77.1097 37.4044 76.2944 36.2648 76.4852 35.0461C76.6759 33.8274 77.8004 32.9911 78.9969 33.1781C80.1933 33.3652 81.0086 34.5048 80.8179 35.7235C80.6272 36.9422 79.5026 37.7785 78.3062 37.5915Z" fill="url(#paint23_linear_90_473)"/>
<path d="M80.0678 35.5005C79.9992 36.2971 79.3052 36.8878 78.5234 36.8192C77.7417 36.7506 77.162 36.0531 77.2345 35.2565C77.3031 34.4599 77.9972 33.8692 78.7789 33.9378C79.5607 34.0064 80.1403 34.7039 80.0678 35.5005Z" fill="url(#paint24_linear_90_473)" style="mix-blend-mode:multiply"/>
<path d="M74.4812 36.4457C74.4812 36.4457 76.4146 31.2774 79.7132 31.0868C83.0118 30.8962 83.191 35.8092 83.191 35.8092C83.191 35.8092 82.6495 33.1869 79.5492 33.084C76.4489 32.9849 74.4812 36.4419 74.4812 36.4419V36.4457Z" fill="url(#paint25_linear_90_473)"/>
<path d="M74.3707 36.6515L74.8359 37.3605C74.8359 37.3605 74.1685 37.3681 74.119 37.1737C74.0656 36.9831 74.3707 36.6515 74.3707 36.6515Z" fill="#D86B7C"/>
<path d="M75.2668 37.4596C75.2668 37.4596 77.7913 38.0732 80.0374 37.8178C82.2835 37.5625 83.111 36.7125 83.111 36.7125C83.111 36.7125 79.515 37.7607 75.2707 37.4596H75.2668Z" fill="#D86B7C"/>
<path d="M80.3234 35.066C80.1709 35.1803 80.8192 35.268 81.3225 35.1155C81.7725 34.9783 82.009 34.7115 81.9708 34.6581C81.9327 34.6048 80.9221 34.6124 80.3234 35.066Z" fill="white"/>
<path d="M79.942 35.1613C79.7628 35.0812 79.5378 35.1613 79.5225 35.2604C79.5073 35.3595 79.7247 35.5043 79.8314 35.47C79.942 35.4357 80.0412 35.207 79.942 35.1613Z" fill="white"/>
<path d="M74.3707 36.6515C74.3707 36.6515 76.59 34.1436 79.1984 33.8654C81.8068 33.5871 82.9127 35.1689 82.9127 35.1689C82.9127 35.1689 82.7258 33.2365 79.3471 33.1945C75.9684 33.1526 74.3744 36.6515 74.3744 36.6515H74.3707Z" fill="#CC78B1"/>
<path d="M74.3707 36.6515C74.3707 36.6515 76.2316 33.2479 79.7247 33.2898C82.844 33.3279 83.2406 36.1446 83.2406 36.1446C83.2406 36.1446 83.7783 33.7548 81.7 33.004C79.7209 32.2874 76.1401 33.084 74.3707 36.6515Z" fill="#401432"/>
<path d="M63.7462 40.0475C63.7462 40.0475 63.7881 40.3029 64.7072 40.4782C65.6262 40.6574 66.3622 41.5988 67.9295 41.8466C69.4968 42.0905 70.4082 41.4082 71.3387 41.515C72.2691 41.6255 72.4636 41.4082 72.4636 41.4082C72.6963 40.8251 72.7001 40.2267 72.6085 39.6969C72.6085 39.6969 72.6085 39.6816 72.6085 39.6778C72.4407 38.7478 71.9908 38.0427 71.9908 38.0427C69.9582 36.6363 67.5977 36.2666 65.2296 36.9869C65.2296 36.9869 64.8139 37.33 64.425 37.8941V37.9017C64.0474 38.4467 63.6928 39.1976 63.7538 40.0475H63.7462Z" fill="url(#paint26_linear_90_473)"/>
<path d="M65.7557 40.947C65.7557 40.947 65.1418 40.2267 64.2189 40.3525L65.7557 40.947Z" fill="#812852"/>
<path d="M71.8192 41.5458C71.8192 41.5458 70.965 41.137 69.9545 41.71L71.8192 41.5458Z" fill="#812852"/>
<path d="M63.7462 40.0475C63.7462 40.0475 63.7881 40.3029 64.7072 40.4782C65.6262 40.6574 66.3622 41.5988 67.9295 41.8466C69.4968 42.0905 70.4082 41.4082 71.3387 41.515C72.2691 41.6255 72.4636 41.4082 72.4636 41.4082C72.6963 40.8251 72.7001 40.2267 72.6085 39.6969C72.62 39.8493 72.6657 40.8327 72.2615 41.008C71.8229 41.1948 69.573 40.6955 68.1468 40.4706C66.7206 40.2457 64.2952 39.8722 64.0817 39.4529C63.8758 39.0489 64.3754 37.997 64.425 37.9017C64.0474 38.4467 63.6928 39.1976 63.7538 40.0475H63.7462Z" fill="#CC78B1"/>
<path d="M65.2295 36.9831C65.2295 36.9831 65.4926 38.6335 65.26 39.7274C65.26 39.7274 65.8053 38.7135 65.5765 36.8878L65.2295 36.9831Z" fill="url(#paint27_linear_90_473)" style="mix-blend-mode:multiply"/>
<path d="M71.9105 38.0313C71.9105 38.0313 71.1554 39.5254 71.0448 40.6345C71.0448 40.6345 70.8351 39.4987 71.6092 37.8331L71.9105 38.0313Z" fill="url(#paint28_linear_90_473)" style="mix-blend-mode:multiply"/>
<path d="M72.2615 41.008C72.2615 41.008 72.4407 41.2824 72.4674 41.412C72.4941 41.5416 70.1145 43.1729 67.7846 42.807C65.4546 42.4411 63.7576 40.2915 63.75 40.0475C63.7461 39.8036 64.1733 39.5597 64.1733 39.5597C64.1733 39.5597 65.9503 40.1276 68.1468 40.4706C70.3471 40.8136 72.2615 41.008 72.2615 41.008Z" fill="#CC78B1"/>
<path d="M66.3697 39.6435C66.7281 39.5063 66.2324 38.8698 66.0722 38.8698C65.9121 38.8698 65.771 39.2052 65.8206 39.4453C65.8701 39.6855 66.2172 39.7007 66.3697 39.6435Z" fill="#FBCBBB"/>
<path d="M65.5002 30.1339C65.5002 30.1339 64.8825 27.7289 63.6774 26.0328L63.9444 27.1267C63.9444 27.1267 63.5897 26.6426 63.0101 26.1967C62.4266 25.7507 57.7094 24.5006 56.718 24.5235L56.9391 24.1232C56.9391 24.1232 55.0401 25.2857 53.4613 28.0567C53.4613 28.0567 54.9104 26.8637 55.7417 26.8561C56.5731 26.8484 63.7804 29.1086 65.4202 30.6637L65.5041 30.1377L65.5002 30.1339Z" fill="#010101"/>
<path d="M74.4161 31.5289C74.4161 31.5289 75.7394 29.4288 77.4059 28.1786L76.8186 29.1391C76.8186 29.1391 77.3029 28.7847 77.9931 28.5369C78.6833 28.2892 83.5607 28.5369 84.495 28.8647L84.4073 28.4188C84.4073 28.4188 85.8602 30.1072 86.5161 33.2288C86.5161 33.2288 85.5017 31.6509 84.7123 31.3879C83.923 31.1249 76.3724 31.0792 74.3323 32.0587L74.4161 31.5327V31.5289Z" fill="#010101"/>
<path d="M72.437 34.1664C72.437 34.1664 70.946 41.3358 72.418 43.5083C73.89 45.6847 81.0553 46.2602 84.8649 44.526C88.6745 42.7918 86.989 33.2098 86.989 33.2098C86.989 33.2098 85.3149 30.2025 79.9151 29.8557C74.5154 29.5088 72.437 34.1626 72.437 34.1626V34.1664Z" fill="url(#paint29_linear_90_473)" style="mix-blend-mode:multiply"/>
<path d="M66.5873 33.3203C66.5873 33.3203 65.7712 39.7464 63.8874 41.2291C61.9998 42.708 55.6123 41.2139 52.7828 38.6449C49.9532 36.076 54.0946 28.2168 54.0946 28.2168C54.0946 28.2168 56.3903 26.0709 61.1799 27.2753C65.9695 28.4798 66.5911 33.3241 66.5911 33.3241L66.5873 33.3203Z" fill="url(#paint30_linear_90_473)" style="mix-blend-mode:multiply"/>
<path d="M71.114 48.4709C69.9585 49.2294 68.681 50.1251 67.19 50.0107C65.6989 49.8964 64.3223 48.2651 63.4376 47.1369C65.4244 49.4314 68.456 49.8887 71.114 48.4747V48.4709Z" fill="#CC78B1"/>
<path d="M74.3629 45.1854C72.8452 47.6324 70.1339 49.7858 67.1213 49.3056C64.0057 48.8063 62.1333 46.0773 61.5079 43.1844C63.5786 44.0839 65.5349 45.2159 67.4912 46.3365C69.7563 45.86 72.0634 45.395 74.3667 45.1854H74.3629Z" fill="#F26665"/>
<path d="M61.1304 42.666C61.3592 43.2835 61.6948 43.8628 62.1067 44.385C63.3956 46.0201 65.4472 47.1445 67.3806 47.4532C69.0318 47.7162 70.8661 47.5104 72.4219 46.7939C73.3982 46.3441 74.2638 45.6923 74.9121 44.8271C72.971 45.2883 70.3665 45.2273 68.3301 44.9415C68.1547 44.9148 67.9793 44.8881 67.8115 44.8614C67.2128 44.7738 66.5798 44.6518 65.9353 44.4955C64.2536 44.0915 62.4994 43.4626 61.1266 42.6699L61.1304 42.666Z" fill="#731C55"/>
<path d="M74.9121 44.8233C72.971 45.2845 70.3665 45.2235 68.3301 44.9377C70.7021 45.4598 72.7651 46.1726 72.4219 46.79C73.3982 46.3403 74.2638 45.6885 74.9121 44.8233Z" fill="#CC78B1"/>
<path d="M61.1304 42.666C61.3592 43.2835 61.6948 43.8628 62.1067 44.385C62.1982 44.0839 63.9219 44.183 65.9354 44.4917C64.2537 44.0877 62.4995 43.4588 61.1267 42.666H61.1304Z" fill="#CC78B1"/>
<path d="M70.8242 47.3579C70.0005 46.9082 68.5323 46.527 67.5637 46.5652C66.4273 46.165 64.288 46.325 64.288 46.325C65.3138 46.9082 66.3587 47.3541 67.5599 47.5028C68.5857 47.6286 69.7755 47.518 70.8203 47.3579H70.8242Z" fill="#BE2741"/>
<path d="M74.4391 44.911C72.3074 45.2959 69.9698 45.2578 67.8153 44.8538C65.6569 44.5794 63.4794 43.92 61.5346 42.8833C63.876 43.0967 68.5398 43.5998 74.4391 44.911Z" fill="#D74058"/>
<path d="M73.1732 45.0977C71.5563 45.9744 69.5924 46.3517 67.7658 46.062C65.9391 45.7724 64.1697 44.8386 62.8655 43.5312C64.4405 44.2249 66.1107 44.587 67.8268 44.8576C69.5428 45.1282 71.419 45.2654 73.1732 45.0977Z" fill="#FBDBE9"/>
<path d="M61.8932 42.3383C61.3326 42.6127 60.8216 42.9405 60.4746 43.455C60.5852 43.0358 60.7949 42.3878 61.1305 42.1515C61.4699 41.9152 61.6644 42.1591 61.8932 42.3383Z" fill="#D86B7C"/>
<path d="M74.1799 44.2554C74.6299 44.6861 75.015 45.1549 75.1905 45.7495C75.2133 45.3188 75.2133 44.6442 74.9655 44.3164C74.7176 43.9886 74.4545 44.1563 74.1799 44.2554Z" fill="#D86B7C"/>
<path d="M65.2719 47.1445C64.9668 47.2969 64.7418 47.5371 64.5473 47.8153C64.4482 47.7429 64.3452 47.6743 64.2461 47.6019C64.2804 47.3046 64.6198 47.0797 64.8295 46.9196C64.9783 46.9958 65.1232 47.0721 65.2719 47.1445Z" fill="#FBDBE9"/>
<path d="M64.6501 46.8929C64.3718 47.0035 64.2154 47.2207 64.1124 47.4951C64.0858 47.457 64.0591 47.4151 64.0324 47.377C64.1468 47.114 64.326 46.9463 64.6082 46.8891C64.6234 46.8891 64.6349 46.8929 64.6501 46.8967V46.8929Z" fill="#FBDBE9"/>
<path d="M70.828 47.3541C68.6543 47.6667 66.3015 47.1064 64.2956 46.3212C66.0955 47.6743 68.7191 47.781 70.828 47.3541Z" fill="#FBDBE9"/>
<path d="M68.6924 47.0073C67.8 47.194 65.7713 46.2488 67.5636 46.569C68.3186 46.7024 69.8707 46.7633 68.6924 47.0073Z" fill="#F7A9B0"/>
<path d="M93.0864 13.5131C93.0864 13.5131 94.0924 3.58257 100.784 4.25071C107.475 4.91884 107.18 17.6238 107.18 17.6238L106.109 16.6562C106.109 16.6562 107.431 9.82806 103.822 8.50576C100.213 7.18747 96.8802 9.14562 96.8802 9.14562C96.8802 9.14562 106.74 6.58184 109.46 12.5029C112.184 18.4245 108.062 28.697 101.622 26.6677C95.1815 24.6343 93.0825 13.5125 93.0825 13.5125L93.0864 13.5131Z" fill="#010101"/>
<path d="M110.148 18.8304C110.148 18.8304 103.343 9.27953 94.5833 14.3007L93.9528 13.9538C93.9528 13.9538 102.32 8.18042 110.308 16.4362L110.147 18.8344L110.148 18.8304Z" fill="url(#paint31_linear_90_473)" style="mix-blend-mode:multiply"/>
<path d="M109.709 13.0936C109.709 13.0936 101.347 6.71208 93.902 11.7067L94.7165 10.4081C94.7165 10.4081 98.3791 6.65119 109.464 12.5033L109.709 13.0936Z" fill="#010101"/>
<path d="M106.094 26.0522C106.094 26.0522 107.671 14.8878 95.6053 14.9213L95.9914 15.206C95.9914 15.206 107.223 15.8583 105.128 26.558L106.09 26.0516L106.094 26.0522Z" fill="url(#paint32_linear_90_473)" style="mix-blend-mode:multiply"/>
<path d="M92.1925 12.8312C92.1925 12.8312 97.8756 16.1354 99.2845 25.3579C99.2845 25.3579 103.523 16.5606 92.1925 12.8312Z" fill="#F78E1E"/>
<defs>
<linearGradient id="paint0_linear_90_473" x1="80.6026" y1="327.873" x2="125.562" y2="188.763" gradientUnits="userSpaceOnUse">
<stop stop-color="#31111B"/>
<stop offset="1" stop-color="#1A0F21"/>
</linearGradient>
<linearGradient id="paint1_linear_90_473" x1="-52.4937" y1="420.231" x2="-17.6543" y2="65.4147" gradientUnits="userSpaceOnUse">
<stop stop-color="#F7A393"/>
<stop offset="0.43" stop-color="#F5A794"/>
<stop offset="0.51" stop-color="#F5A18E"/>
<stop offset="0.76" stop-color="#F59584"/>
<stop offset="1" stop-color="#F69181"/>
</linearGradient>
<linearGradient id="paint2_linear_90_473" x1="-46.9134" y1="413.153" x2="1.49995" y2="48.4062" gradientUnits="userSpaceOnUse">
<stop stop-color="#F7A393"/>
<stop offset="0.43" stop-color="#F5A794"/>
<stop offset="0.51" stop-color="#F5A18E"/>
<stop offset="0.76" stop-color="#F59584"/>
<stop offset="1" stop-color="#F69181"/>
</linearGradient>
<linearGradient id="paint3_linear_90_473" x1="-98.1051" y1="312.022" x2="-46.8389" y2="-27.4395" gradientUnits="userSpaceOnUse">
<stop stop-color="#F7A393"/>
<stop offset="0.43" stop-color="#F5A794"/>
<stop offset="0.51" stop-color="#F5A18E"/>
<stop offset="0.76" stop-color="#F59584"/>
<stop offset="1" stop-color="#F69181"/>
</linearGradient>
<linearGradient id="paint4_linear_90_473" x1="188.629" y1="191.81" x2="-21.9658" y2="162.848" gradientUnits="userSpaceOnUse">
<stop stop-color="#F7A393"/>
<stop offset="0.43" stop-color="#F5A794"/>
<stop offset="0.51" stop-color="#F5A18E"/>
<stop offset="0.76" stop-color="#F59584"/>
<stop offset="1" stop-color="#F69181"/>
</linearGradient>
<linearGradient id="paint5_linear_90_473" x1="164.79" y1="193.065" x2="2.88185" y2="182.636" gradientUnits="userSpaceOnUse">
<stop stop-color="#F7A393"/>
<stop offset="0.43" stop-color="#F5A794"/>
<stop offset="0.51" stop-color="#F5A18E"/>
<stop offset="0.76" stop-color="#F59584"/>
<stop offset="1" stop-color="#F69181"/>
</linearGradient>
<linearGradient id="paint6_linear_90_473" x1="174.95" y1="204.114" x2="4.21332" y2="188.433" gradientUnits="userSpaceOnUse">
<stop stop-color="#F7A393"/>
<stop offset="0.43" stop-color="#F5A794"/>
<stop offset="0.51" stop-color="#F5A18E"/>
<stop offset="0.76" stop-color="#F59584"/>
<stop offset="1" stop-color="#F69181"/>
</linearGradient>
<linearGradient id="paint7_linear_90_473" x1="151.395" y1="173.541" x2="-23.5369" y2="126.194" gradientUnits="userSpaceOnUse">
<stop stop-color="#F7A393"/>
<stop offset="0.43" stop-color="#F5A794"/>
<stop offset="0.51" stop-color="#F5A18E"/>
<stop offset="0.76" stop-color="#F59584"/>
<stop offset="1" stop-color="#F69181"/>
</linearGradient>
<linearGradient id="paint8_linear_90_473" x1="134.781" y1="166.895" x2="37.2589" y2="200.293" gradientUnits="userSpaceOnUse">
<stop stop-color="#F7A393"/>
<stop offset="0.43" stop-color="#F5A794"/>
<stop offset="0.51" stop-color="#F5A18E"/>
<stop offset="0.76" stop-color="#F59584"/>
<stop offset="1" stop-color="#F69181"/>
</linearGradient>
<linearGradient id="paint9_linear_90_473" x1="177.648" y1="190.793" x2="-1.99452" y2="176.42" gradientUnits="userSpaceOnUse">
<stop stop-color="#F9AD99"/>
<stop offset="0.18" stop-color="#F79B8D"/>
<stop offset="0.46" stop-color="#F48781"/>
<stop offset="0.73" stop-color="#F37B79"/>
<stop offset="1" stop-color="#F37777"/>
</linearGradient>
<linearGradient id="paint10_linear_90_473" x1="173.563" y1="190.604" x2="1.23717" y2="175.118" gradientUnits="userSpaceOnUse">
<stop stop-color="#F7A393"/>
<stop offset="0.43" stop-color="#F5A794"/>
<stop offset="0.51" stop-color="#F5A18E"/>
<stop offset="0.76" stop-color="#F59584"/>
<stop offset="1" stop-color="#F69181"/>
</linearGradient>
<linearGradient id="paint11_linear_90_473" x1="182.973" y1="195.662" x2="-11.0114" y2="180.094" gradientUnits="userSpaceOnUse">
<stop stop-color="#F7A393"/>
<stop offset="0.43" stop-color="#F5A794"/>
<stop offset="0.51" stop-color="#F5A18E"/>
<stop offset="0.76" stop-color="#F59584"/>
<stop offset="1" stop-color="#F69181"/>
</linearGradient>
<linearGradient id="paint12_linear_90_473" x1="54.9281" y1="447.743" x2="123.635" y2="81.5784" gradientUnits="userSpaceOnUse">
<stop stop-color="#F7A393"/>
<stop offset="0.43" stop-color="#F5A794"/>
<stop offset="0.51" stop-color="#F5A18E"/>
<stop offset="0.76" stop-color="#F59584"/>
<stop offset="1" stop-color="#F69181"/>
</linearGradient>
<linearGradient id="paint13_linear_90_473" x1="55.1468" y1="450.789" x2="149.046" y2="60.9482" gradientUnits="userSpaceOnUse">
<stop stop-color="#F7A393"/>
<stop offset="0.43" stop-color="#F5A794"/>
<stop offset="0.51" stop-color="#F5A18E"/>
<stop offset="0.76" stop-color="#F59584"/>
<stop offset="1" stop-color="#F69181"/>
</linearGradient>
<linearGradient id="paint14_linear_90_473" x1="67.7856" y1="329.138" x2="130" y2="1.75126" gradientUnits="userSpaceOnUse">
<stop stop-color="#F7A393"/>
<stop offset="0.43" stop-color="#F5A794"/>
<stop offset="0.51" stop-color="#F5A18E"/>
<stop offset="0.76" stop-color="#F59584"/>
<stop offset="1" stop-color="#F69181"/>
</linearGradient>
<linearGradient id="paint15_linear_90_473" x1="161.875" y1="190.296" x2="5.47662" y2="180.482" gradientUnits="userSpaceOnUse">
<stop stop-color="#F7A393"/>
<stop offset="0.43" stop-color="#F5A794"/>
<stop offset="0.51" stop-color="#F5A18E"/>
<stop offset="0.76" stop-color="#F59584"/>
<stop offset="1" stop-color="#F69181"/>
</linearGradient>
<linearGradient id="paint16_linear_90_473" x1="83.567" y1="305.735" x2="184.636" y2="44.1153" gradientUnits="userSpaceOnUse">
<stop stop-color="#E8DCED"/>
<stop offset="1" stop-color="#BBC3E3"/>
</linearGradient>
<linearGradient id="paint17_linear_90_473" x1="80.9098" y1="334.422" x2="123.961" y2="3.23457" gradientUnits="userSpaceOnUse">
<stop stop-color="#48204B"/>
<stop offset="1" stop-color="#301138"/>
</linearGradient>
<linearGradient id="paint18_linear_90_473" x1="80.899" y1="334.349" x2="123.868" y2="3.43209" gradientUnits="userSpaceOnUse">
<stop stop-color="#57345B"/>
<stop offset="1" stop-color="#301138"/>
</linearGradient>
<linearGradient id="paint19_linear_90_473" x1="67.5536" y1="330.653" x2="193.213" y2="40.3012" gradientUnits="userSpaceOnUse">
<stop stop-color="#A295B8"/>
<stop offset="0.99" stop-color="#734B61"/>
</linearGradient>
<linearGradient id="paint20_linear_90_473" x1="187.604" y1="197.326" x2="0.118682" y2="178.586" gradientUnits="userSpaceOnUse">
<stop stop-color="#F7A393"/>
<stop offset="0.43" stop-color="#F5A794"/>
<stop offset="0.51" stop-color="#F5A18E"/>
<stop offset="0.76" stop-color="#F59584"/>
<stop offset="1" stop-color="#F69181"/>
</linearGradient>
<linearGradient id="paint21_linear_90_473" x1="82.7368" y1="368.991" x2="262.817" y2="98.7705" gradientUnits="userSpaceOnUse">
<stop stop-color="#E8DCED"/>
<stop offset="1" stop-color="#BBC3E3"/>
</linearGradient>
<linearGradient id="paint22_linear_90_473" x1="92.7186" y1="335.894" x2="49.6669" y2="4.70602" gradientUnits="userSpaceOnUse">
<stop stop-color="#48204B"/>
<stop offset="1" stop-color="#301138"/>
</linearGradient>
<linearGradient id="paint23_linear_90_473" x1="93.1589" y1="334.478" x2="50.1899" y2="3.56049" gradientUnits="userSpaceOnUse">
<stop stop-color="#57345B"/>
<stop offset="1" stop-color="#301138"/>
</linearGradient>
<linearGradient id="paint24_linear_90_473" x1="78.9558" y1="335.49" x2="133.599" y2="6.78156" gradientUnits="userSpaceOnUse">
<stop stop-color="#A295B8"/>
<stop offset="0.99" stop-color="#734B61"/>
</linearGradient>
<linearGradient id="paint25_linear_90_473" x1="5.15559" y1="154.454" x2="177.47" y2="159.242" gradientUnits="userSpaceOnUse">
<stop stop-color="#F7A393"/>
<stop offset="0.43" stop-color="#F5A794"/>
<stop offset="0.51" stop-color="#F5A18E"/>
<stop offset="0.76" stop-color="#F59584"/>
<stop offset="1" stop-color="#F69181"/>
</linearGradient>
<linearGradient id="paint26_linear_90_473" x1="81.7108" y1="333.086" x2="217.574" y2="67.761" gradientUnits="userSpaceOnUse">
<stop stop-color="#F37A7F"/>
<stop offset="0.47" stop-color="#F4837F"/>
<stop offset="1" stop-color="#F58880"/>
</linearGradient>
<linearGradient id="paint27_linear_90_473" x1="-54.1481" y1="334.418" x2="-39.4639" y2="-7.31855" gradientUnits="userSpaceOnUse">
<stop stop-color="#FCE4D6"/>
<stop offset="0.99" stop-color="#AE7DB7"/>
</linearGradient>
<linearGradient id="paint28_linear_90_473" x1="35.8838" y1="340.341" x2="69.0057" y2="-3.49396" gradientUnits="userSpaceOnUse">
<stop stop-color="#FCE4D6"/>
<stop offset="0.99" stop-color="#AE7DB7"/>
</linearGradient>
<linearGradient id="paint29_linear_90_473" x1="75.0206" y1="338.383" x2="169.751" y2="23.1198" gradientUnits="userSpaceOnUse">
<stop stop-color="#FCE4D6"/>
<stop offset="0.99" stop-color="#AE7DB7"/>
</linearGradient>
<linearGradient id="paint30_linear_90_473" x1="73.7302" y1="329.825" x2="164.875" y2="26.5013" gradientUnits="userSpaceOnUse">
<stop stop-color="#FCE4D6"/>
<stop offset="0.99" stop-color="#AE7DB7"/>
</linearGradient>
<linearGradient id="paint31_linear_90_473" x1="173.771" y1="168.01" x2="0.271132" y2="168.01" gradientUnits="userSpaceOnUse">
<stop stop-color="#827FBC"/>
<stop offset="1" stop-color="white"/>
</linearGradient>
<linearGradient id="paint32_linear_90_473" x1="173.771" y1="167.993" x2="0.229187" y2="167.993" gradientUnits="userSpaceOnUse">
<stop stop-color="#827FBC"/>
<stop offset="1" stop-color="white"/>
</linearGradient>
</defs>
</svg>
