<svg width="154" height="387" viewBox="0 0 154 387" fill="none" xmlns="http://www.w3.org/2000/svg">
<path d="M68.4553 56.155C68.8657 54.9349 68.875 44.741 68.875 44.741L91.2666 44.0052C91.2666 44.0052 89.3964 66.2744 89.6669 67.3268" fill="url(#paint0_linear_90_475)"/>
<g style="mix-blend-mode:multiply" opacity="0.6">
<path d="M91.4348 48.2615C91.4348 48.2615 88.809 48.9973 88.1747 50.1289C87.5404 51.2606 83.4594 59.7733 80.2413 59.9084C77.0232 60.0434 74.9384 55.5169 73.306 54.4738C71.6737 53.4307 68.7167 53.3562 68.7167 53.3562L68.8753 44.7363L91.2669 44.0005L91.4395 48.2615H91.4348Z" fill="#8D307F"/>
</g>
<path style="mix-blend-mode:multiply" opacity="0.6" d="M76.039 49.8636L76.8691 58.3484C76.8691 58.3484 74.873 56.1131 73.8516 54.4832C72.8302 52.8533 70.9273 46.4687 70.9273 46.4687L76.0436 49.8636H76.039Z" fill="url(#paint1_linear_90_475)"/>
<path d="M64.3507 27.2357C64.3507 27.2357 62.4105 24.2879 61.0953 24.2925C60.2931 24.2925 58.3622 25.9737 58.3855 27.5756C58.4135 29.7178 60.3164 32.1534 60.7875 33.4061C61.2632 34.6541 62.4898 36.284 63.306 36.4423C64.1222 36.6007 65.1855 35.0592 65.1855 35.0592C65.1855 35.0592 64.7891 29.1823 64.3507 27.2357Z" fill="url(#paint2_linear_90_475)"/>
<path style="mix-blend-mode:multiply" opacity="0.6" d="M64.2061 30.3744C64.2061 30.3744 61.0206 26.4487 59.8639 26.4487C58.7073 26.4487 58.7073 28.684 59.1737 29.9553C59.4955 30.8354 60.1298 32.1114 60.1298 32.1114C60.1298 32.1114 59.6307 30.7423 59.5701 29.7178C59.4768 28.1391 59.8266 26.9935 60.2277 26.9982C60.9599 27.0028 61.5383 28.0041 61.6269 28.358C61.7202 28.7119 61.0486 30.2673 61.2258 31.3524C61.403 32.4374 62.056 32.8519 62.2705 32.7308C62.4897 32.6144 62.1539 31.3896 62.3498 30.9565C62.5457 30.5234 63.1194 29.8948 63.4552 30.0298C63.791 30.1695 64.2061 30.3698 64.2061 30.3698V30.3744Z" fill="url(#paint3_linear_90_475)"/>
<path style="mix-blend-mode:multiply" opacity="0.6" d="M64.2061 30.3744C64.2061 30.3744 63.4225 29.9041 63.1846 30.0577C62.9468 30.2068 62.3405 30.7516 62.3125 31.0916C62.2892 31.4315 62.5037 32.4095 62.3125 32.5771C62.1213 32.7448 61.4263 31.6504 61.3984 30.6771C61.3657 29.7085 61.9114 28.5862 61.9114 28.4558C61.9114 28.3254 61.7855 27.7014 61.7855 27.7014C61.7855 27.7014 63.6371 29.4477 64.2061 30.3697V30.3744Z" fill="url(#paint4_linear_90_475)"/>
<path d="M94.7924 27.2357C94.7924 27.2357 96.7326 24.2879 98.0479 24.2925C98.8501 24.2925 100.781 25.9737 100.758 27.5756C100.73 29.7178 98.8267 32.1534 98.3557 33.4061C97.8799 34.6541 96.6533 36.284 95.8371 36.4423C95.021 36.6007 93.9576 35.0592 93.9576 35.0592C93.9576 35.0592 94.354 29.1823 94.7924 27.2357Z" fill="url(#paint5_linear_90_475)"/>
<path style="mix-blend-mode:multiply" opacity="0.6" d="M94.9374 30.3744C94.9374 30.3744 98.1229 26.4487 99.2795 26.4487C100.436 26.4487 100.436 28.684 99.9698 29.9553C99.648 30.8354 99.0137 32.1114 99.0137 32.1114C99.0137 32.1114 99.5127 30.7423 99.5734 29.7178C99.6666 28.1391 99.3168 26.9935 98.9157 26.9982C98.1835 27.0028 97.6052 28.0041 97.5166 28.358C97.4233 28.7119 98.0949 30.2673 97.9177 31.3524C97.7404 32.4374 97.0875 32.8519 96.8729 32.7308C96.6537 32.6144 96.9895 31.3896 96.7936 30.9565C96.5978 30.5234 96.0241 29.8948 95.6883 30.0298C95.3525 30.1695 94.9374 30.3698 94.9374 30.3698V30.3744Z" fill="url(#paint6_linear_90_475)"/>
<path style="mix-blend-mode:multiply" opacity="0.6" d="M94.937 30.3744C94.937 30.3744 95.7205 29.9041 95.9584 30.0577C96.1963 30.2068 96.8026 30.7516 96.8306 31.0916C96.8585 31.4315 96.6393 32.4095 96.8306 32.5771C97.0218 32.7448 97.7167 31.6504 97.7447 30.6771C97.7773 29.7085 97.2317 28.5862 97.2317 28.4558C97.2317 28.3254 97.3576 27.7014 97.3576 27.7014C97.3576 27.7014 95.506 29.4477 94.937 30.3697V30.3744Z" fill="url(#paint7_linear_90_475)"/>
<path d="M63.9216 27.3382C64.1642 29.9926 64.6772 32.4701 64.7984 35.2456C64.9197 38.0211 65.1482 40.2797 65.582 41.3135C65.7779 41.7792 66.123 42.2588 66.5568 42.7478C67.7927 44.1402 69.7562 45.5978 71.0854 46.9669C71.5892 47.4838 72.1115 47.9216 72.6012 48.2895C72.6012 48.2895 72.6059 48.2895 72.6105 48.2941C73.5993 49.0299 74.4808 49.4677 74.8959 49.6353C76.1645 50.1569 79.4526 50.1569 79.4526 50.1569C79.4526 50.1569 82.7406 50.1569 84.0092 49.6353C84.6342 49.3792 86.3039 48.5223 87.8197 46.9669C89.3914 45.351 91.8447 43.6093 92.936 42.0074C93.0993 41.7745 93.2299 41.5417 93.3278 41.3135C93.7615 40.2797 93.9947 38.0211 94.1113 35.2456C94.2326 32.4701 94.7456 29.9926 94.9882 27.3382C95.2307 24.6791 95.5292 15.4771 94.7456 13.3629C93.9574 11.2487 84.6482 5.5766 79.4479 5.5766C75.8007 5.5766 70.12 8.37073 66.7946 10.769C65.3814 11.7889 64.388 12.7342 64.1548 13.3629C63.3666 15.4771 63.6698 24.6838 63.9123 27.3382H63.9216Z" fill="url(#paint8_linear_90_475)"/>
<path d="M82.349 2.42854C82.349 2.42854 80.2829 1.21775 77.312 1.33883C74.3364 1.45991 70.9643 3.06188 70.9643 3.06188L79.1309 7.45797L82.8154 6.11213L82.3537 2.42854H82.349Z" fill="url(#paint9_linear_90_475)"/>
<path d="M61.7859 15.5283L62.6068 14.9416L63.9966 26.0948C63.9966 26.0948 63.6655 22.3227 64.1785 20.2364C64.6916 18.1502 64.5703 13.9776 64.5703 13.9776C64.5703 13.9776 67.7091 10.1683 70.6334 9.29278C70.6334 9.29278 74.4625 9.74449 80.2132 9.95871C85.9638 10.1683 89.2659 10.0798 89.2659 10.0798C89.2659 10.0798 93.1043 12.194 94.3169 14.3129C94.3169 14.3129 94.2843 17.5168 94.3776 19.2073C94.4708 20.8977 95.3057 26.6909 95.3057 26.6909C95.3057 26.6909 95.3057 26.6676 95.3104 26.6303C95.357 25.9039 95.8327 19.0489 96.3364 16.2176C96.3551 16.1151 96.3737 16.0173 96.3877 15.9149C96.4437 15.5516 96.4903 15.1884 96.523 14.8251C96.523 14.8158 96.523 14.8065 96.5276 14.7925C96.6489 13.4886 96.6349 12.1987 96.5976 11.2487C96.5976 11.1835 96.5929 11.1183 96.5883 11.0531C96.5836 10.9925 96.5789 10.932 96.5789 10.8715C96.5789 10.8202 96.5743 10.7643 96.5696 10.7178C96.5696 10.6666 96.565 10.6153 96.5603 10.5688C96.551 10.457 96.5463 10.3499 96.537 10.2568C96.5323 10.2055 96.5276 10.1543 96.523 10.1124C96.523 10.1031 96.523 10.0938 96.523 10.0891C96.523 10.0425 96.5136 10.0053 96.5136 9.96337C96.5043 9.87954 96.4997 9.81435 96.495 9.77243C96.495 9.75846 96.495 9.74915 96.495 9.74449C96.495 9.71655 96.4903 9.70724 96.4903 9.70724L96.3877 9.73984L95.6788 11.109C95.6788 11.109 95.6788 11.109 95.6695 11.095C95.6695 11.095 95.6601 11.0857 95.6555 11.081C95.6555 11.081 95.6508 11.0764 95.6462 11.0717C95.6322 11.0577 95.6182 11.0438 95.5995 11.0205C95.3943 10.7783 94.7367 10.0239 93.7946 9.0413C93.7433 8.98542 93.692 8.92954 93.6407 8.87831C93.6267 8.85969 93.6127 8.84571 93.5987 8.83174C93.5147 8.74326 93.4121 8.63616 93.2955 8.52439C93.2675 8.49645 93.2349 8.46385 93.2023 8.43125C92.2928 7.50453 91.1828 6.44742 89.9888 5.44619C89.9795 5.43688 89.9748 5.43222 89.9655 5.42757C89.9235 5.39497 89.8862 5.35771 89.8395 5.32512C89.4105 4.96654 88.9721 4.61727 88.5243 4.28663C84.7558 1.47853 80.4417 0.0255885 80.4417 0.0255885H78.4875C78.4875 0.0255885 80.7542 3.76506 81.2532 6.10747C81.1879 5.95845 78.9866 1.09667 77.1863 0.0255885C77.1863 0.0255885 75.4419 -0.202599 73.4924 0.705493C73.4924 0.705493 76.7758 3.46702 77.5874 5.64644C77.4521 5.53468 72.0466 1.0175 68.1009 3.37854C68.2082 3.35526 69.3275 3.14104 70.3956 3.26678C70.3956 3.26678 69.2576 3.74178 67.4713 5.73958C67.2101 6.03296 66.9116 6.39154 66.5991 6.79669C64.7708 9.14376 62.285 13.1021 61.7859 15.5283Z" fill="url(#paint10_linear_90_475)"/>
<path d="M79.6729 9.93078C79.6729 9.93078 74.6778 -0.151361 68.0969 3.38321C68.0969 3.38321 74.342 2.89889 78.7541 9.89353L79.6729 9.93544V9.93078Z" fill="url(#paint11_linear_90_475)"/>
<path d="M77.1913 0.0302124C77.1913 0.0302124 81.2163 4.24934 81.8086 9.93539H79.6772C79.6772 9.93539 79.2061 4.38905 74.9246 0.216488C74.9246 0.216488 75.8901 0.0302124 77.1913 0.0302124Z" fill="url(#paint12_linear_90_475)"/>
<path d="M80.4419 0.0302124C80.4419 0.0302124 83.6507 4.41234 83.9072 10.0611C83.9072 10.0611 83.3009 4.87802 79.6724 0.0302124H80.4419Z" fill="url(#paint13_linear_90_475)"/>
<path d="M96.0425 10.9739C96.0425 10.9739 95.0071 12.669 94.0323 13.8705L94.3168 14.3036V15.5283C94.3168 15.5283 95.6974 14.8764 96.4902 13.3443V9.70258L96.0425 10.9786V10.9739Z" fill="url(#paint14_linear_90_475)"/>
<path d="M90.516 5.8514C90.516 5.8514 92.0831 7.7095 92.4795 12.2732L91.7146 11.6678C91.7146 11.6678 91.8452 7.77935 89.3686 4.92468L90.516 5.8514Z" fill="url(#paint15_linear_90_475)"/>
<path d="M75.3625 9.69791C75.3625 9.69791 72.261 5.78147 67.0047 5.69299L67.2753 5.97241L65.4003 6.41947C65.4003 6.41947 68.32 7.03883 70.6379 9.2881L75.3672 9.69791H75.3625Z" fill="url(#paint16_linear_90_475)"/>
<g style="mix-blend-mode:multiply" opacity="0.6">
<path d="M74.9944 9.28811H70.6337C70.6337 9.28811 74.4628 9.73983 80.2134 9.95405C85.964 10.1636 89.2661 10.0751 89.2661 10.0751C89.2661 10.0751 93.1045 12.1893 94.3172 14.3082C94.3172 14.3082 94.2845 17.5122 94.3778 19.2026C94.4711 20.8931 95.3059 26.6862 95.3059 26.6862C95.3059 26.6862 95.3059 26.6629 95.3106 26.6257C95.3805 25.8899 96.0428 18.9651 96.388 15.9102C96.4393 15.4445 96.4859 15.072 96.5232 14.8205C96.5232 14.8112 96.5232 14.8019 96.5279 14.7879C96.6864 13.6376 96.6491 12.1242 96.5885 11.0484C96.5838 10.9879 96.5792 10.9273 96.5792 10.8668C96.5792 10.8156 96.5745 10.7597 96.5698 10.7131C96.5698 10.6619 96.5652 10.6107 96.5605 10.5641C96.5512 10.4523 96.5465 10.3452 96.5372 10.2521C96.5325 10.2009 96.5279 10.1496 96.5232 10.1077C96.5232 10.0984 96.5232 10.0891 96.5232 10.0844C96.5232 10.0379 96.5139 10.0006 96.5139 9.9587C96.5046 9.87488 96.4999 9.80968 96.4952 9.76777C96.4952 9.7538 96.4952 9.74449 96.4952 9.73983C96.4952 9.71189 96.4906 9.70257 96.4906 9.70257L96.388 9.73517L95.679 11.1043C95.679 11.1043 95.679 11.1043 95.6697 11.0903C95.6697 11.0903 95.6604 11.081 95.6557 11.0764C95.6557 11.0764 95.6511 11.0717 95.6464 11.067C95.4598 10.8621 94.4478 9.73052 93.6409 8.87365C93.6269 8.85502 93.6129 8.84105 93.5989 8.82708C93.515 8.7386 93.4124 8.63149 93.2958 8.51973C92.3536 7.5837 90.5207 5.92585 89.9937 5.44619C89.9844 5.43687 89.9797 5.43222 89.9704 5.42756C89.8911 5.35771 89.8444 5.3158 89.8444 5.3158V5.32977C90.0636 7.66752 89.3594 9.13909 89.3594 9.13909C85.2225 9.48836 74.9898 9.29277 74.9898 9.29277L74.9944 9.28811Z" fill="#8D307F"/>
</g>
<g style="mix-blend-mode:multiply" opacity="0.6">
<path d="M61.7863 15.5283L62.6071 14.9416L63.997 26.0948C63.997 26.0948 63.6659 22.3227 64.1789 20.2364C64.6919 18.1502 64.5707 13.9776 64.5707 13.9776C64.5707 13.9776 67.7095 10.1683 70.6338 9.29278L70.3773 9.05528L66.6041 6.79669H66.5995C64.7712 9.14842 62.2853 13.1068 61.7863 15.533V15.5283Z" fill="#8D307F"/>
</g>
<path d="M67.2383 11.3138C67.2383 11.3138 66.2075 10.918 64.785 10.9785C63.3625 11.0391 62.6956 12.2638 62.6956 12.2638C62.6956 12.2638 64.3839 11.6957 66.6553 11.8214L67.2383 11.3138Z" fill="url(#paint17_linear_90_475)"/>
<path d="M92.8577 12.6039C92.8577 12.6039 95.4928 10.0612 94.033 7.05286C94.033 7.05286 93.5993 8.83178 92.4519 11.9845L92.8577 12.5992V12.6039Z" fill="url(#paint18_linear_90_475)"/>
<path d="M142.229 381.615C142.107 380.702 141.706 379.631 140.559 379.082C137.21 377.484 124.888 372.492 121.591 369.735C119.03 367.593 116.847 363.02 115.998 361.083L92.814 361.683C91.3076 367.654 90.1183 379.193 89.8804 381.61H142.229V381.615Z" fill="#4F6BAF"/>
<path d="M142.229 386.863H89.8809V381.62H142.229V386.863Z" fill="#FFEFE6"/>
<path d="M67.6151 361.898C67.2606 361.371 67.1766 357.744 67.1766 354.898L48.2504 351.07C46.049 356.077 42.5324 368.152 40.6854 374.695C39.9392 377.349 39.4635 379.096 39.4635 379.096C39.4635 379.096 40.7321 385.746 53.0542 386.849C64.7607 387.897 71.2529 383.212 71.2529 381.275C71.2529 380.716 71.0291 378.979 70.6933 376.762C69.8537 371.309 68.3053 362.927 67.6151 361.893V361.898Z" fill="#FFEFE6"/>
<path d="M67.1767 354.898L48.2505 351.07C46.0491 356.077 42.5325 368.152 40.6855 374.695C43.5679 376.66 44.9904 380.86 53.0543 381.601C62.3216 382.448 67.9136 378.802 70.6934 376.762C69.8538 371.309 68.3054 362.927 67.6152 361.893C67.2607 361.367 67.1767 357.739 67.1767 354.894V354.898Z" fill="#4F6BAF"/>
<path d="M123.717 361.087C123.087 337.803 124.459 283.061 124.72 279.392C124.986 275.648 122.472 236.204 120.676 209.022C119.706 194.362 118.95 183.274 118.95 183.274H51.314L51.5238 205.757L49.8122 274.386C49.8122 274.386 41.2119 332.033 38.2409 356.71C48.9307 361.129 61.584 361.818 73.1272 360.463L81.4897 277.72L89.4324 212.244L90.09 208.155L90.2906 212.267L89.4977 277.105L86.7973 364.748C99.3013 367.314 111.637 364.789 123.717 361.083V361.087Z" fill="#2A2A2C"/>
<path d="M120.676 209.022C114.263 210.745 103.928 212.645 90.2948 212.272L90.0943 208.16L89.4367 212.249C78.7003 211.886 65.963 210.107 51.5281 205.762L51.5048 202.963L51.4908 201.179L51.4675 198.497L51.4442 196.648L51.3229 183.278H118.945C118.945 183.278 119.221 187.311 119.654 193.728C119.696 194.352 119.734 195.004 119.78 195.675C119.86 196.811 119.939 198.013 120.023 199.265C120.06 199.848 120.102 200.448 120.139 201.054C120.307 203.545 120.485 206.223 120.671 209.026L120.676 209.022Z" fill="#2A2A2C"/>
<path d="M62.0791 183.278C61.039 189.775 57.3639 195.805 51.4593 198.497L51.436 196.648C56.3704 194.073 59.4813 188.918 60.4281 183.278H62.0744H62.0791Z" fill="#2A2A2C"/>
<path d="M68.799 183.278C66.5137 192.285 60.0215 199.577 51.5051 202.958L51.4911 201.175C59.1214 197.929 64.872 191.395 67.0967 183.278H68.8037H68.799Z" fill="#2A2A2C"/>
<path d="M119.786 195.675C115.132 193.374 111.708 188.448 110.724 183.278H112.417C113.317 187.516 115.99 191.558 119.66 193.728C119.702 194.352 119.739 195.004 119.786 195.675Z" fill="#2A2A2C"/>
<path d="M120.145 201.054C112.459 198.334 107.016 191.4 106.181 183.278H107.804C108.587 190.45 113.354 196.63 120.033 199.265C120.07 199.848 120.112 200.448 120.149 201.054H120.145Z" fill="#2A2A2C"/>
<path d="M119.622 188.373V188.387L99.9122 189.616L95.4535 183.274L86.7972 190.436L51.729 192.629H51.6404C51.6404 192.629 31.9679 76.1888 56.2764 58.9723C58.2166 57.6032 60.3993 56.8581 62.8619 56.8581L68.2347 51.1907L80.2957 60.3834L87.6741 66.4233L90.2346 56.8534C90.2346 56.8534 92.3473 59.9363 93.0702 62.4091C93.0702 62.4091 93.1215 62.4184 93.2195 62.4324C94.2875 62.6093 100.924 63.8667 106.694 68.8822C106.894 69.0591 107.099 69.2361 107.295 69.4224C109.03 71.0243 110.663 72.9849 112.02 75.3738C118.811 87.3606 119.585 183.516 119.617 188.205C119.622 188.285 119.622 188.336 119.622 188.368V188.373Z" fill="#3C3148"/>
<path d="M87.6783 66.4327C87.6783 66.4327 96.8896 167.315 95.4578 183.274C95.4578 183.274 98.9277 116.448 87.6783 66.4327Z" fill="#261D30"/>
<path d="M90.2389 56.8628L87.6784 66.4327L93.6436 75.3786C93.5969 68.6913 93.3544 63.3685 93.0746 62.4138C92.3516 59.9457 90.2435 56.8582 90.2435 56.8582L90.2389 56.8628Z" fill="#261D30"/>
<path d="M87.6787 66.4327L79.1857 77.069L62.8665 56.8628L68.2394 51.1954L87.6787 66.4327Z" fill="#261D30"/>
<path d="M60.6554 180.168C60.6554 180.168 70.1698 176.973 71.4291 179.651C72.693 182.328 65.2307 185.56 65.2307 185.56L60.6554 180.168Z" fill="#F69787"/>
<path d="M81.4011 195.223C79.9552 196.984 68.995 185.719 68.995 185.719L64.9886 187.46L69.1302 192.597L70.8559 202.05C70.8559 202.05 69.3215 203.121 67.3719 204.323C67.1294 204.477 66.8776 204.626 66.6257 204.775C65.4504 205.478 64.1771 206.186 63.0251 206.712C62.9179 206.768 62.8013 206.814 62.694 206.866C62.111 207.112 61.57 207.313 61.0989 207.438C60.5719 207.573 60.1335 207.611 59.8117 207.522L56.8967 200.621C56.8967 200.621 46.9672 197.738 45.8665 196.62C45.4327 196.173 44.8357 193.514 44.2761 190.469C44.0102 189.006 43.7491 187.456 43.5205 186.017L47.5781 183.795L56.7708 178.766C57.7875 178.845 59.1307 178.98 60.6232 179.176C61.3554 179.269 62.125 179.381 62.9085 179.511C65.7442 179.986 68.7618 180.699 70.9585 181.756C71.8913 182.203 72.6702 182.71 73.2205 183.292C77.0449 187.302 82.8469 193.468 81.4057 195.223H81.4011Z" fill="url(#paint19_linear_90_475)"/>
<path d="M63.0208 206.707C62.9136 206.763 62.797 206.81 62.6897 206.861C62.6057 206.558 62.5031 206.162 62.3725 205.687C62.0787 204.612 61.6543 203.163 61.1646 201.608C60.6609 200.057 60.1152 198.683 59.5928 197.701C59.4576 197.454 59.3317 197.23 59.2244 197.035C59.0985 196.849 58.9912 196.681 58.8979 196.551C58.7253 196.276 58.6227 196.113 58.6227 196.113C58.6227 196.113 58.786 196.206 59.0751 196.397C59.2197 196.49 59.3969 196.606 59.5975 196.751C59.7841 196.909 59.9893 197.091 60.2178 197.3C61.1086 198.143 62.116 199.564 62.6664 201.268C63.2027 202.972 63.2447 204.551 63.1561 205.664C63.1188 206.074 63.0675 206.423 63.0208 206.698V206.707Z" fill="#F47D6F"/>
<path d="M67.3674 204.318C67.1248 204.472 66.873 204.621 66.6211 204.77C66.5978 204.709 66.5838 204.644 66.5652 204.584C66.2667 203.508 65.8469 202.06 65.3525 200.504C64.8535 198.949 64.3078 197.58 63.7808 196.597C63.6455 196.35 63.5289 196.127 63.417 195.936C63.2911 195.745 63.1791 195.582 63.0952 195.447C62.918 195.167 62.8153 195.014 62.8153 195.014C62.8153 195.014 62.9739 195.107 63.2631 195.293C63.403 195.386 63.5849 195.503 63.7854 195.652C63.972 195.805 64.1819 195.992 64.4057 196.201C65.3012 197.049 66.304 198.474 66.8543 200.174C67.3534 201.752 67.428 203.228 67.3627 204.318H67.3674Z" fill="#F47D6F"/>
<path d="M61.0949 207.434C60.5679 207.569 60.1295 207.606 59.8077 207.517L56.8927 200.616C56.8927 200.616 46.9632 197.733 45.8625 196.616C45.4288 196.169 44.8318 193.51 44.2721 190.464C44.0063 189.002 43.7451 187.451 43.5165 186.012L47.5742 183.791C47.7281 185.132 47.9053 186.501 48.1245 187.805C48.7168 191.433 49.5563 194.562 50.7083 195.237C53.7539 197.021 58.8842 199.531 58.8842 199.531L61.0996 207.434H61.0949Z" fill="#F69787"/>
<path d="M60.1242 177.252L57.4424 179.404L47.5269 187.074L43.2687 190.366C43.2687 190.366 -3.49201 140.878 0.63092 125.775C4.68855 110.906 51.9623 63.1123 53.4361 61.6314C53.4501 61.6175 53.4594 61.6082 53.4641 61.6035C53.4641 61.5942 53.4734 61.5895 53.4734 61.5895C53.4734 61.5895 53.5061 61.7898 53.5667 62.167C54.2243 66.3861 58.3332 92.4507 60.1289 95.3286C61.1596 96.9865 51.5565 106.542 42.2659 115.19C33.9735 122.907 25.9328 129.901 25.9328 129.901C31.9819 135.112 60.1335 177.252 60.1335 177.252H60.1242Z" fill="#3C3148"/>
<path d="M14.4502 124.951C14.6928 124.63 15.1965 124.737 15.5696 124.886C17.7057 125.729 19.7485 126.814 21.642 128.108C22.0152 128.365 22.5935 128.718 23.1578 129.138L44.1269 108.973L44.1456 113.421C35.8531 121.132 25.9235 129.897 25.9235 129.897C31.9727 135.112 60.1289 177.248 60.1289 177.248L57.4425 179.399C50.3066 169.406 31.2684 142.824 23.7455 133.115C21.4368 134.521 18.7457 135.294 16.0453 135.322C16.8428 133.422 18.867 132.388 20.7372 131.513C18.7877 129.72 16.8335 127.927 14.884 126.129C14.5435 125.817 14.1797 125.314 14.4549 124.942L14.4502 124.951Z" fill="#3C3148"/>
<path d="M135.503 151.668C135.503 151.668 123.75 94.7139 119.627 83.9845C117.971 79.6722 115.555 76.3938 113.26 74.0094C111.567 72.2491 109.94 70.9731 108.727 70.1396C107.491 69.292 106.694 68.8962 106.694 68.8962C106.694 68.8962 106.707 69.6878 106.74 71.0989C106.983 82.9367 108.167 138.54 108.876 140.011C109.226 140.738 114.193 151.672 119.622 163.645V163.659C119.771 163.98 119.92 164.306 120.065 164.632L136.538 154.909L135.503 151.672V151.668Z" fill="#3C3148"/>
<path d="M123.339 159.589C123.549 156.846 114.403 93.2936 110.895 81.1484C113.465 101.131 119.622 163.64 119.622 163.64V163.654C119.771 163.976 119.92 164.302 120.065 164.628L124.043 162.281C123.563 160.991 123.297 160.05 123.334 159.594L123.339 159.589Z" fill="#261D30"/>
<path d="M151.123 115.232L113.429 113.663L106.75 168.269L141.898 167.967L151.123 115.232Z" fill="#EAE2CC"/>
<path d="M153.287 137.263C152.853 138.13 152.116 138.8 151.314 139.182C150.39 139.629 149.453 140.113 148.506 140.458C148.413 140.491 148.32 140.523 148.222 140.556C147.779 140.71 147.335 140.826 146.892 140.896C146.729 140.919 146.571 140.938 146.412 140.952C145.871 140.989 145.335 140.938 144.85 140.77C144.047 140.5 143.884 139.34 144.56 138.512C145.409 137.473 146.519 136.672 147.643 136.132C148.338 135.801 150.689 135.01 152.223 135.084C153.371 135.135 154.07 135.671 153.277 137.254L153.287 137.263Z" fill="url(#paint20_linear_90_475)"/>
<path d="M150.782 142.549C150.349 143.415 149.616 144.081 148.814 144.472C148.217 144.756 147.611 145.059 147 145.334C146.762 145.446 146.52 145.548 146.277 145.637C145.652 145.888 145.022 146.088 144.388 146.186C144.262 146.205 144.141 146.219 144.015 146.228C143.437 146.279 142.863 146.228 142.345 146.056C141.543 145.786 141.385 144.626 142.065 143.802C142.91 142.759 144.02 141.953 145.148 141.422C145.396 141.306 145.853 141.129 146.412 140.947C146.939 140.784 147.555 140.616 148.161 140.514C148.278 140.491 148.39 140.472 148.502 140.458C150.269 140.197 151.827 140.467 150.773 142.549H150.782Z" fill="url(#paint21_linear_90_475)"/>
<path d="M149.611 147.369C149.178 148.235 148.445 148.901 147.643 149.292C146.897 149.655 146.127 150.037 145.363 150.359C145.125 150.456 144.882 150.554 144.644 150.629C144.173 150.801 143.698 150.936 143.217 151.011C142.933 151.052 142.648 151.076 142.368 151.071C141.953 151.071 141.547 151.006 141.179 150.88C140.377 150.61 140.218 149.455 140.899 148.626C141.743 147.588 142.853 146.777 143.982 146.247C143.996 146.247 144.001 146.237 144.015 146.233C144.467 146.018 145.512 145.655 146.608 145.413C146.734 145.385 146.869 145.357 147 145.338C148.898 144.989 150.731 145.152 149.616 147.369H149.611Z" fill="url(#paint22_linear_90_475)"/>
<path d="M147.219 152.501C146.785 153.367 146.048 154.042 145.25 154.424C145.129 154.485 145.008 154.54 144.887 154.601C143.557 155.248 142.196 155.928 140.824 156.138C140.12 156.25 139.407 156.226 138.786 156.012C137.984 155.742 137.825 154.582 138.506 153.758C139.351 152.72 140.461 151.914 141.589 151.378C141.757 151.29 142.032 151.183 142.373 151.066C143.086 150.815 144.08 150.531 145.003 150.4C145.129 150.382 145.246 150.368 145.367 150.354C146.944 150.2 148.189 150.577 147.223 152.496L147.219 152.501Z" fill="url(#paint23_linear_90_475)"/>
<path d="M153.287 137.263C152.853 138.129 152.116 138.8 151.314 139.182C150.391 139.629 149.453 140.113 148.507 140.458C150.274 140.197 151.832 140.467 150.778 142.549C150.344 143.415 149.612 144.081 148.81 144.472C148.213 144.756 147.606 145.059 146.995 145.334C148.894 144.984 150.727 145.147 149.612 147.364C149.178 148.23 148.446 148.896 147.644 149.287C146.898 149.651 146.128 150.032 145.363 150.354C146.939 150.2 148.185 150.577 147.219 152.496C146.786 153.362 146.049 154.037 145.251 154.419C145.13 154.48 145.009 154.536 144.887 154.596C144.934 154.508 144.976 154.429 145.013 154.34C145.321 153.679 145.582 152.952 145.564 152.221C145.554 151.509 145.214 150.801 144.649 150.624L144.612 150.615C144.747 150.54 144.873 150.475 145.004 150.4C145.825 149.93 146.646 149.343 147.079 148.393C147.574 147.285 147.079 145.65 146.072 145.781C146.142 145.734 146.212 145.688 146.277 145.641C146.389 145.571 146.496 145.492 146.608 145.413C147.341 144.901 148.049 144.304 148.483 143.448C148.968 142.488 148.903 141.115 148.227 140.565C148.208 140.556 148.189 140.532 148.171 140.523C148.105 140.477 148.036 140.439 147.961 140.411C149.411 139.475 150.801 138.502 151.636 136.714C151.865 136.225 152.042 135.657 152.233 135.098C153.38 135.149 154.08 135.685 153.287 137.268V137.263Z" fill="url(#paint24_linear_90_475)"/>
<path d="M64.57 23.3146C64.57 23.3146 65.736 21.3075 66.9066 21.247C67.1585 21.233 67.471 21.2609 67.8254 21.3168C70.3486 21.7313 74.9659 23.6918 74.9659 23.6918C74.9659 23.6918 75.7308 21.708 75.6469 20.8977L75.381 20.7813C75.381 20.7813 75.1059 22.034 74.9286 22.2156L74.9613 20.595C74.9613 20.595 71.2861 20.0408 68.9075 19.6962L68.511 19.6357C68.2312 19.5938 67.9747 19.5565 67.7508 19.5286C67.2611 19.4587 66.9486 19.4215 66.93 19.4215C66.832 19.4494 66.6175 19.5239 66.5942 19.5286L66.7248 19.1793C66.7248 19.1793 65.4888 20.4693 64.5793 23.3146H64.57Z" fill="url(#paint25_linear_90_475)"/>
<g style="mix-blend-mode:multiply" opacity="0.6">
<path d="M64.5705 23.3146C64.5705 23.3146 65.7365 21.3075 66.9072 21.2469C67.159 21.233 67.4715 21.2609 67.826 21.3168L68.9033 19.6915L68.5069 19.631C67.8586 19.7428 66.0583 21.0374 66.0583 21.0374C66.5527 20.0781 67.6814 19.5518 67.7467 19.5239C67.257 19.454 66.9445 19.4168 66.9258 19.4168C66.8279 19.4447 66.6133 19.5192 66.59 19.5239L66.7206 19.1746C66.7206 19.1746 65.4846 20.4646 64.5752 23.3099L64.5705 23.3146Z" fill="#B23594"/>
</g>
<path d="M92.8428 23.3146C92.8428 23.3146 91.6768 21.3075 90.5061 21.247C90.2543 21.233 89.9418 21.2609 89.5873 21.3168C87.0641 21.7313 82.4468 23.6918 82.4468 23.6918C82.4468 23.6918 81.682 21.708 81.7659 20.8977L82.0318 20.7813C82.0318 20.7813 82.3069 22.034 82.4842 22.2156L82.4515 20.595C82.4515 20.595 86.1267 20.0408 88.5053 19.6962L88.9017 19.6357C89.1816 19.5938 89.4381 19.5565 89.662 19.5286C90.1517 19.4587 90.4642 19.4215 90.4828 19.4215C90.5808 19.4494 90.7953 19.5239 90.8186 19.5286L90.688 19.1793C90.688 19.1793 91.924 20.4693 92.8334 23.3146H92.8428Z" fill="url(#paint26_linear_90_475)"/>
<g style="mix-blend-mode:multiply" opacity="0.6">
<path d="M92.8428 23.3146C92.8428 23.3146 91.6768 21.3075 90.5061 21.2469C90.2543 21.233 89.9418 21.2609 89.5873 21.3168L88.51 19.6915L88.9064 19.631C89.5547 19.7428 91.355 21.0374 91.355 21.0374C90.8606 20.0781 89.7319 19.5518 89.6666 19.5239C90.1563 19.454 90.4688 19.4168 90.4875 19.4168C90.5854 19.4447 90.8 19.5192 90.8233 19.5239L90.6927 19.1746C90.6927 19.1746 91.9286 20.4646 92.8381 23.3099L92.8428 23.3146Z" fill="#B23594"/>
</g>
<path d="M74.2987 27.8924C74.3174 28.223 71.4724 28.2463 69.7281 28.0274C67.9838 27.8085 67.1769 26.5279 67.1303 26.1833C67.0883 25.8387 67.5593 24.8654 69.9706 25.0843C72.3819 25.3031 74.2474 27.1333 74.2941 27.8877L74.2987 27.8924Z" fill="url(#paint27_linear_90_475)"/>
<path d="M69.066 26.5418C69.1406 27.5291 70.0034 28.2649 70.9922 28.1904C71.981 28.1159 72.7179 27.2543 72.6432 26.2671C72.5686 25.2798 71.7058 24.544 70.717 24.6185C69.7283 24.693 68.9914 25.5546 69.066 26.5418Z" fill="url(#paint28_linear_90_475)"/>
<path d="M69.173 26.5325C69.243 27.4592 70.0545 28.1577 70.9873 28.0832C71.9201 28.0087 72.615 27.2031 72.5404 26.2717C72.4704 25.345 71.6589 24.6465 70.7261 24.721C69.798 24.7908 69.0984 25.6011 69.173 26.5325Z" fill="url(#paint29_linear_90_475)"/>
<path style="mix-blend-mode:multiply" d="M69.7651 26.4906C69.8118 27.0914 70.3388 27.5431 70.9405 27.4965C71.5421 27.4499 71.9945 26.9237 71.9479 26.323C71.9012 25.7222 71.3742 25.2705 70.7726 25.3171C70.1709 25.3637 69.7185 25.8899 69.7651 26.4906Z" fill="url(#paint30_linear_90_475)"/>
<path d="M74.416 28.0414C74.416 28.0414 72.9236 24.7536 70.489 24.3392C68.4835 23.9946 67.005 25.7921 67.005 25.7921C67.005 25.7921 68.5861 24.9818 70.5916 25.387C72.5971 25.7921 74.4113 28.0461 74.4113 28.0461L74.416 28.0414Z" fill="#E56D5C"/>
<path d="M74.1218 27.4686L73.6134 28.1159C73.6134 28.1159 74.3456 28.0507 74.4109 28.0274C74.4762 28.0041 74.1218 27.4686 74.1218 27.4686Z" fill="#DE4E6B"/>
<path d="M72.6523 28.1671C72.6523 28.1671 70.2364 28.3813 68.8559 27.9063C67.3634 27.3894 67.1302 26.1833 67.1302 26.1833C67.1302 26.1833 67.5034 27.3987 69.0751 27.8318C70.451 28.2137 72.6523 28.1625 72.6523 28.1625V28.1671Z" fill="#DE4E6B"/>
<path d="M69.2337 26.919C69.3923 27.0122 68.7673 27.1659 68.2636 27.0727C67.8112 26.9889 67.5547 26.7607 67.5826 26.7048C67.6153 26.649 68.6041 26.5465 69.2337 26.9144V26.919Z" fill="white"/>
<path d="M69.6167 26.9703C69.7846 26.8725 70.0084 26.9237 70.0364 27.0169C70.0644 27.11 69.8638 27.273 69.7566 27.2544C69.6446 27.2357 69.5234 27.0215 69.6167 26.9703Z" fill="white"/>
<g style="mix-blend-mode:multiply" opacity="0.6">
<path d="M74.3086 27.8644C74.3086 27.8644 71.1231 24.8281 67.1355 26.1879C67.1355 26.1879 68.2408 25.0191 70.6567 25.2007C73.0773 25.3823 74.3086 27.8644 74.3086 27.8644Z" fill="#B23594"/>
</g>
<path d="M74.416 28.0413C74.416 28.0413 72.8816 25.8619 70.6149 25.6523C68.3482 25.4381 67.1309 26.1879 67.1309 26.1879L66.9257 25.8433C66.9257 25.8433 68.9172 24.87 70.8994 25.359C73.278 25.9504 74.416 28.0413 74.416 28.0413Z" fill="#290B39"/>
<path d="M74.415 28.0414C74.415 28.0414 73.3563 24.5022 71.7706 23.4125C71.7706 23.4125 73.5895 26.0436 74.415 28.0414Z" fill="#DE4E6B"/>
<path d="M82.9267 27.8924C82.908 28.223 85.753 28.2463 87.4974 28.0274C89.2417 27.8085 90.0485 26.5279 90.0952 26.1833C90.1371 25.8387 89.6661 24.8654 87.2548 25.0843C84.8436 25.3031 82.978 27.1333 82.9314 27.8877L82.9267 27.8924Z" fill="url(#paint31_linear_90_475)"/>
<path d="M88.155 26.5418C88.0803 27.5291 87.2175 28.2649 86.2287 28.1904C85.24 28.1159 84.5031 27.2543 84.5777 26.2671C84.6523 25.2798 85.5152 24.544 86.5039 24.6185C87.4927 24.693 88.2296 25.5546 88.155 26.5418Z" fill="url(#paint32_linear_90_475)"/>
<path d="M88.0473 26.5325C87.9773 27.4592 87.1658 28.1578 86.233 28.0833C85.3049 28.0134 84.6053 27.2031 84.6799 26.2717C84.7545 25.3404 85.5614 24.6465 86.4942 24.721C87.4223 24.7908 88.1219 25.6011 88.0473 26.5325Z" fill="url(#paint33_linear_90_475)"/>
<path style="mix-blend-mode:multiply" d="M87.4606 26.4906C87.4139 27.0914 86.8869 27.5431 86.2852 27.4965C85.6836 27.4499 85.2312 26.9237 85.2778 26.323C85.3245 25.7222 85.8515 25.2705 86.4531 25.3171C87.0548 25.3637 87.5072 25.8899 87.4606 26.4906Z" fill="url(#paint34_linear_90_475)"/>
<path d="M82.8058 28.0413C82.8058 28.0413 84.2983 24.7536 86.7328 24.3391C88.7383 23.9945 90.2168 25.7921 90.2168 25.7921C90.2168 25.7921 88.6357 24.9818 86.6302 25.3869C84.6247 25.7921 82.8105 28.046 82.8105 28.046L82.8058 28.0413Z" fill="#E56D5C"/>
<path d="M83.0991 27.4686L83.6074 28.1159C83.6074 28.1159 82.8752 28.0507 82.8099 28.0274C82.7446 28.0041 83.0991 27.4686 83.0991 27.4686Z" fill="#DE4E6B"/>
<path d="M84.5736 28.1671C84.5736 28.1671 86.9895 28.3813 88.37 27.9063C89.8625 27.3894 90.0957 26.1833 90.0957 26.1833C90.0957 26.1833 89.7226 27.3987 88.1508 27.8318C86.775 28.2137 84.5736 28.1625 84.5736 28.1625V28.1671Z" fill="#DE4E6B"/>
<path d="M87.9875 26.919C87.8289 27.0122 88.4539 27.1659 88.9576 27.0727C89.41 26.9889 89.6665 26.7607 89.6385 26.7048C89.6059 26.649 88.6171 26.5465 87.9875 26.9144V26.919Z" fill="white"/>
<path d="M87.6045 26.9703C87.4366 26.8725 87.2127 26.9237 87.1847 27.0169C87.1567 27.11 87.3573 27.273 87.4645 27.2544C87.5765 27.2357 87.6977 27.0215 87.6045 26.9703Z" fill="white"/>
<g style="mix-blend-mode:multiply" opacity="0.6">
<path d="M82.9177 27.8644C82.9177 27.8644 86.1031 24.8281 90.0908 26.1879C90.0908 26.1879 88.9855 25.0191 86.5695 25.2007C84.149 25.3823 82.9177 27.8644 82.9177 27.8644Z" fill="#B23594"/>
</g>
<path d="M82.8056 28.0413C82.8056 28.0413 84.34 25.8619 86.6067 25.6523C88.8734 25.4381 90.0907 26.1879 90.0907 26.1879L90.2959 25.8433C90.2959 25.8433 88.3044 24.87 86.3222 25.359C83.9436 25.9504 82.8056 28.0413 82.8056 28.0413Z" fill="#290B39"/>
<path d="M82.8057 28.0414C82.8057 28.0414 83.8645 24.5022 85.4502 23.4125C85.4502 23.4125 83.6313 26.0436 82.8057 28.0414Z" fill="#DE4E6B"/>
<path d="M82.6935 34.6448C82.6935 34.6448 83.7289 30.8774 78.841 30.8774C73.9532 30.8774 74.7741 34.5703 74.7741 34.5703L74.9933 34.6448C74.9933 34.6448 76.3272 35.4784 78.8457 35.4784C81.3642 35.4784 82.6981 34.6448 82.6981 34.6448H82.6935Z" fill="url(#paint35_linear_90_475)"/>
<g style="mix-blend-mode:multiply" opacity="0.6">
<path d="M78.8922 34.915C81.4481 34.915 82.6934 34.6449 82.6934 34.6449C81.3875 34.6076 80.3334 35.4691 78.8409 35.4784C77.3485 35.4691 76.2991 34.6076 74.9885 34.6449C74.9885 34.6449 76.4903 34.915 78.8876 34.915H78.8922Z" fill="#B23594"/>
</g>
<path style="mix-blend-mode:multiply" opacity="0.5" d="M76.8545 35.0453C76.8545 35.0453 76.1969 34.3468 74.9936 34.6448L76.8545 35.0453Z" fill="url(#paint36_linear_90_475)"/>
<path style="mix-blend-mode:multiply" opacity="0.5" d="M82.6934 34.6448C82.6934 34.6448 81.9238 34.2676 80.8977 35.0267L82.6934 34.6448Z" fill="url(#paint37_linear_90_475)"/>
<g style="mix-blend-mode:multiply" opacity="0.6">
<path d="M82.2041 31.9904C82.2041 31.9904 83.3235 32.959 82.7871 34.5703C82.7871 34.5703 82.7405 33.2664 82.2041 31.9904Z" fill="#B23594"/>
</g>
<g style="mix-blend-mode:multiply" opacity="0.6">
<path d="M75.3994 32.0556C75.3994 32.0556 74.2381 32.959 74.7791 34.5703C74.7791 34.5703 74.8677 33.3316 75.3994 32.0556Z" fill="#B23594"/>
</g>
<g style="mix-blend-mode:multiply" opacity="0.6">
<path d="M82.6934 34.6449C82.6934 34.6449 80.5946 36.4564 78.8409 36.4564C77.0873 36.4564 74.774 34.5703 74.774 34.5703C75.1704 32.1907 76.6022 34.9149 78.8876 34.9149C80.4407 34.9149 82.3156 32.824 82.6887 34.6449H82.6934Z" fill="#B23594"/>
</g>
<path d="M77.186 33.7134C77.2 33.4992 76.9341 33.257 76.7243 33.2757C76.5144 33.2943 76.6217 33.7646 76.7243 33.8531C76.8269 33.9416 77.186 33.7088 77.186 33.7088V33.7134Z" fill="#FCCBB9"/>
<path style="mix-blend-mode:multiply" opacity="0.6" d="M82.2041 31.9904C82.2041 31.9904 81.845 32.5493 81.4672 34.3468C81.4672 34.3468 81.0148 33.1453 81.9429 31.7855L82.2041 31.9904Z" fill="url(#paint38_linear_90_475)"/>
<path style="mix-blend-mode:multiply" opacity="0.6" d="M75.4645 32.0417C75.4645 32.0417 75.721 32.5492 76.0942 34.3468C76.0942 34.3468 76.6492 33.0988 75.7211 31.739L75.4645 32.0417Z" fill="url(#paint39_linear_90_475)"/>
<path style="mix-blend-mode:multiply" d="M85.4922 39.6417C85.4922 39.6417 82.7078 44.5547 78.9207 44.5547C75.4974 44.5547 72.5917 39.7395 72.5917 39.7395C72.5917 39.7395 75.2688 42.4451 77.792 42.7059C80.3152 42.9667 85.4922 39.6417 85.4922 39.6417Z" fill="url(#paint40_linear_90_475)"/>
<path d="M86.7695 37.6998C86.7695 37.6998 84.0691 42.2635 82.1895 42.8922C80.31 43.5162 76.8633 43.153 75.758 42.8922C74.6479 42.6314 71.3272 38.1003 71.3272 38.1003C71.3272 38.1003 74.9418 41.416 79.046 41.416C83.1503 41.416 86.7649 37.7044 86.7649 37.7044L86.7695 37.6998Z" fill="#EF7172"/>
<path d="M86.7695 37.6998C86.7695 37.6998 84.4469 39.0503 79.2979 39.0503C74.1489 39.0503 70.8422 37.6998 70.8422 37.6998C70.8422 37.6998 75.2543 41.5789 79.2979 41.5789C82.7026 41.5789 86.7695 37.6998 86.7695 37.6998Z" fill="#D35057"/>
<path d="M71.5051 37.29C71.5051 37.29 70.6982 37.9559 70.3484 38.4775C70.3484 38.4775 70.2318 37.5507 70.5863 37.0804C70.9408 36.6101 71.5098 37.29 71.5098 37.29H71.5051Z" fill="#DE6B7D"/>
<path d="M86.1824 37.29C86.1824 37.29 86.9893 37.9559 87.3391 38.4775C87.3391 38.4775 87.4557 37.5507 87.1012 37.0804C86.7467 36.6101 86.1777 37.29 86.1777 37.29H86.1824Z" fill="#DE6B7D"/>
<path d="M85.3105 38.6125C85.3105 38.6125 82.4002 41.3042 79.3034 41.4113C75.465 41.5417 72.4287 38.4775 72.4287 38.4775C72.4287 38.4775 76.4444 39.4508 79.4013 39.4508C82.3583 39.4508 85.3105 38.6172 85.3105 38.6172V38.6125Z" fill="white"/>
<path d="M73.7859 38.7708L73.8652 39.6743L72.037 38.3145L73.7859 38.7708Z" fill="#4F1C3E"/>
<path d="M84.0557 38.9105L83.8972 39.7394L85.8467 38.3657L84.0557 38.9105Z" fill="#4F1C3E"/>
<g style="mix-blend-mode:soft-light">
<path d="M77.5635 41.9421L77.0971 43.0877C77.0971 43.0877 76.099 43.0272 75.502 42.7757C74.891 42.5242 73.4779 40.9316 72.9975 40.2331L73.5058 40.084C73.5058 40.084 75.1709 41.3693 77.5635 41.9421Z" fill="#FCCBB9"/>
</g>
<g style="mix-blend-mode:multiply" opacity="0.6">
<path d="M84.0326 39.0549C84.0326 39.0549 81.9058 39.6742 79.3033 39.6742C76.7008 39.6742 73.7999 38.8872 73.7999 38.8872L73.7905 38.7708C73.7905 38.7708 76.934 39.4507 79.4013 39.4507C81.8685 39.4507 84.0605 38.9152 84.0605 38.9152L84.0326 39.0549Z" fill="#8D307F"/>
</g>
<defs>
<linearGradient id="paint0_linear_90_475" x1="79.8586" y1="67.3268" x2="79.8586" y2="44.0005" gradientUnits="userSpaceOnUse">
<stop stop-color="#F9B19E"/>
<stop offset="0.21" stop-color="#F69B8F"/>
<stop offset="0.47" stop-color="#F48781"/>
<stop offset="0.74" stop-color="#F37B79"/>
<stop offset="1" stop-color="#F37777"/>
</linearGradient>
<linearGradient id="paint1_linear_90_475" x1="73.8982" y1="58.3437" x2="73.8982" y2="46.464" gradientUnits="userSpaceOnUse">
<stop stop-color="#FEEADB"/>
<stop offset="0.99" stop-color="#B17EB7"/>
</linearGradient>
<linearGradient id="paint2_linear_90_475" x1="61.7855" y1="36.4563" x2="61.7855" y2="24.2972" gradientUnits="userSpaceOnUse">
<stop stop-color="#F4837E"/>
<stop offset="0.01" stop-color="#F3827D"/>
<stop offset="0.34" stop-color="#F27369"/>
<stop offset="0.67" stop-color="#F26A5D"/>
<stop offset="1" stop-color="#F26859"/>
</linearGradient>
<linearGradient id="paint3_linear_90_475" x1="61.5476" y1="32.7541" x2="61.5476" y2="26.4487" gradientUnits="userSpaceOnUse">
<stop stop-color="#FEEADB"/>
<stop offset="0.99" stop-color="#B17EB7"/>
</linearGradient>
<linearGradient id="paint4_linear_90_475" x1="62.8022" y1="32.5957" x2="62.8022" y2="27.706" gradientUnits="userSpaceOnUse">
<stop stop-color="#FEEADB"/>
<stop offset="0.99" stop-color="#B17EB7"/>
</linearGradient>
<linearGradient id="paint5_linear_90_475" x1="97.3529" y1="36.4563" x2="97.3529" y2="24.2972" gradientUnits="userSpaceOnUse">
<stop stop-color="#F4837E"/>
<stop offset="0.01" stop-color="#F3827D"/>
<stop offset="0.34" stop-color="#F27369"/>
<stop offset="0.67" stop-color="#F26A5D"/>
<stop offset="1" stop-color="#F26859"/>
</linearGradient>
<linearGradient id="paint6_linear_90_475" x1="97.5958" y1="32.7541" x2="97.5958" y2="26.4487" gradientUnits="userSpaceOnUse">
<stop stop-color="#FEEADB"/>
<stop offset="0.99" stop-color="#B17EB7"/>
</linearGradient>
<linearGradient id="paint7_linear_90_475" x1="96.3362" y1="32.5957" x2="96.3362" y2="27.706" gradientUnits="userSpaceOnUse">
<stop stop-color="#FEEADB"/>
<stop offset="0.99" stop-color="#B17EB7"/>
</linearGradient>
<linearGradient id="paint8_linear_90_475" x1="79.4619" y1="50.1522" x2="79.4619" y2="5.5766" gradientUnits="userSpaceOnUse">
<stop stop-color="#F3797E"/>
<stop offset="0.11" stop-color="#F37C7A"/>
<stop offset="0.55" stop-color="#F5886E"/>
<stop offset="1" stop-color="#F68D6A"/>
</linearGradient>
<linearGradient id="paint9_linear_90_475" x1="82.8108" y1="4.3984" x2="70.9597" y2="4.3984" gradientUnits="userSpaceOnUse">
<stop stop-color="#33122B"/>
<stop offset="1" stop-color="#441B3E"/>
</linearGradient>
<linearGradient id="paint10_linear_90_475" x1="79.2058" y1="26.6816" x2="79.2058" y2="0.00230323" gradientUnits="userSpaceOnUse">
<stop stop-color="#360F3A"/>
<stop offset="1" stop-color="#4C132E"/>
</linearGradient>
<linearGradient id="paint11_linear_90_475" x1="79.6729" y1="6.27979" x2="68.0969" y2="6.27979" gradientUnits="userSpaceOnUse">
<stop stop-color="#33122B"/>
<stop offset="1" stop-color="#441B3E"/>
</linearGradient>
<linearGradient id="paint12_linear_90_475" x1="81.8039" y1="4.98047" x2="74.92" y2="4.98047" gradientUnits="userSpaceOnUse">
<stop stop-color="#33122B"/>
<stop offset="1" stop-color="#441B3E"/>
</linearGradient>
<linearGradient id="paint13_linear_90_475" x1="83.9072" y1="5.04567" x2="79.6724" y2="5.04567" gradientUnits="userSpaceOnUse">
<stop stop-color="#33122B"/>
<stop offset="1" stop-color="#441B3E"/>
</linearGradient>
<linearGradient id="paint14_linear_90_475" x1="96.4902" y1="12.6131" x2="94.0323" y2="12.6131" gradientUnits="userSpaceOnUse">
<stop stop-color="#33122B"/>
<stop offset="1" stop-color="#441B3E"/>
</linearGradient>
<linearGradient id="paint15_linear_90_475" x1="92.4795" y1="8.59896" x2="89.3686" y2="8.59896" gradientUnits="userSpaceOnUse">
<stop stop-color="#33122B"/>
<stop offset="1" stop-color="#441B3E"/>
</linearGradient>
<linearGradient id="paint16_linear_90_475" x1="75.3625" y1="7.69545" x2="65.3957" y2="7.69545" gradientUnits="userSpaceOnUse">
<stop stop-color="#33122B"/>
<stop offset="1" stop-color="#441B3E"/>
</linearGradient>
<linearGradient id="paint17_linear_90_475" x1="67.2383" y1="11.6212" x2="62.6956" y2="11.6212" gradientUnits="userSpaceOnUse">
<stop stop-color="#33122B"/>
<stop offset="1" stop-color="#441B3E"/>
</linearGradient>
<linearGradient id="paint18_linear_90_475" x1="94.4761" y1="9.82836" x2="92.4519" y2="9.82836" gradientUnits="userSpaceOnUse">
<stop stop-color="#33122B"/>
<stop offset="1" stop-color="#441B3E"/>
</linearGradient>
<linearGradient id="paint19_linear_90_475" x1="81.6296" y1="193.165" x2="43.5112" y2="193.165" gradientUnits="userSpaceOnUse">
<stop stop-color="#E9A792"/>
<stop offset="0.08" stop-color="#ECA78E"/>
<stop offset="0.51" stop-color="#F9AC81"/>
<stop offset="0.59" stop-color="#F8A57D"/>
<stop offset="0.79" stop-color="#F69977"/>
<stop offset="1" stop-color="#F69575"/>
</linearGradient>
<linearGradient id="paint20_linear_90_475" x1="153.627" y1="138.027" x2="144.145" y2="138.027" gradientUnits="userSpaceOnUse">
<stop stop-color="#E9A792"/>
<stop offset="0.08" stop-color="#ECA78E"/>
<stop offset="0.51" stop-color="#F9AC81"/>
<stop offset="0.59" stop-color="#F8A57D"/>
<stop offset="0.79" stop-color="#F69977"/>
<stop offset="1" stop-color="#F69575"/>
</linearGradient>
<linearGradient id="paint21_linear_90_475" x1="151.123" y1="143.313" x2="141.641" y2="143.313" gradientUnits="userSpaceOnUse">
<stop stop-color="#E9A792"/>
<stop offset="0.08" stop-color="#ECA78E"/>
<stop offset="0.51" stop-color="#F9AC81"/>
<stop offset="0.59" stop-color="#F8A57D"/>
<stop offset="0.79" stop-color="#F69977"/>
<stop offset="1" stop-color="#F69575"/>
</linearGradient>
<linearGradient id="paint22_linear_90_475" x1="149.957" y1="148.133" x2="140.47" y2="148.133" gradientUnits="userSpaceOnUse">
<stop stop-color="#E9A792"/>
<stop offset="0.08" stop-color="#ECA78E"/>
<stop offset="0.51" stop-color="#F9AC81"/>
<stop offset="0.59" stop-color="#F8A57D"/>
<stop offset="0.79" stop-color="#F69977"/>
<stop offset="1" stop-color="#F69575"/>
</linearGradient>
<linearGradient id="paint23_linear_90_475" x1="147.559" y1="153.264" x2="138.077" y2="153.264" gradientUnits="userSpaceOnUse">
<stop stop-color="#E9A792"/>
<stop offset="0.08" stop-color="#ECA78E"/>
<stop offset="0.51" stop-color="#F9AC81"/>
<stop offset="0.59" stop-color="#F8A57D"/>
<stop offset="0.79" stop-color="#F69977"/>
<stop offset="1" stop-color="#F69575"/>
</linearGradient>
<linearGradient id="paint24_linear_90_475" x1="153.628" y1="144.849" x2="144.608" y2="144.849" gradientUnits="userSpaceOnUse">
<stop stop-color="#E9A792"/>
<stop offset="0.08" stop-color="#ECA78E"/>
<stop offset="0.51" stop-color="#F9AC81"/>
<stop offset="0.59" stop-color="#F8A57D"/>
<stop offset="0.79" stop-color="#F69977"/>
<stop offset="1" stop-color="#F69575"/>
</linearGradient>
<linearGradient id="paint25_linear_90_475" x1="75.6515" y1="21.4379" x2="64.57" y2="21.4379" gradientUnits="userSpaceOnUse">
<stop stop-color="#360F3A"/>
<stop offset="1" stop-color="#4C132E"/>
</linearGradient>
<linearGradient id="paint26_linear_90_475" x1="81.7612" y1="21.4379" x2="92.8428" y2="21.4379" gradientUnits="userSpaceOnUse">
<stop stop-color="#360F3A"/>
<stop offset="1" stop-color="#4C132E"/>
</linearGradient>
<linearGradient id="paint27_linear_90_475" x1="70.6472" y1="28.1251" x2="70.8296" y2="25.1457" gradientUnits="userSpaceOnUse">
<stop stop-color="#EDE1EF"/>
<stop offset="1" stop-color="#C0C7E6"/>
</linearGradient>
<linearGradient id="paint28_linear_90_475" x1="70.9963" y1="28.1956" x2="70.7222" y2="24.6203" gradientUnits="userSpaceOnUse">
<stop stop-color="#4C132E"/>
<stop offset="1" stop-color="#360F3A"/>
</linearGradient>
<linearGradient id="paint29_linear_90_475" x1="70.9879" y1="28.0888" x2="70.7302" y2="24.727" gradientUnits="userSpaceOnUse">
<stop stop-color="#4C132E"/>
<stop offset="1" stop-color="#360F3A"/>
</linearGradient>
<linearGradient id="paint30_linear_90_475" x1="70.9423" y1="27.4991" x2="70.775" y2="25.3168" gradientUnits="userSpaceOnUse">
<stop stop-color="#C9A8CF"/>
<stop offset="0.99" stop-color="#8361AA"/>
</linearGradient>
<linearGradient id="paint31_linear_90_475" x1="86.5716" y1="28.1184" x2="86.3891" y2="25.1389" gradientUnits="userSpaceOnUse">
<stop stop-color="#EDE1EF"/>
<stop offset="1" stop-color="#C0C7E6"/>
</linearGradient>
<linearGradient id="paint32_linear_90_475" x1="86.2266" y1="28.1898" x2="86.5003" y2="24.6191" gradientUnits="userSpaceOnUse">
<stop stop-color="#4C132E"/>
<stop offset="1" stop-color="#360F3A"/>
</linearGradient>
<linearGradient id="paint33_linear_90_475" x1="86.2344" y1="28.083" x2="86.4921" y2="24.7212" gradientUnits="userSpaceOnUse">
<stop stop-color="#4C132E"/>
<stop offset="1" stop-color="#360F3A"/>
</linearGradient>
<linearGradient id="paint34_linear_90_475" x1="86.2807" y1="27.4933" x2="86.448" y2="25.3109" gradientUnits="userSpaceOnUse">
<stop stop-color="#C9A8CF"/>
<stop offset="0.99" stop-color="#8361AA"/>
</linearGradient>
<linearGradient id="paint35_linear_90_475" x1="78.7571" y1="35.4784" x2="78.7571" y2="30.8727" gradientUnits="userSpaceOnUse">
<stop stop-color="#F3797E"/>
<stop offset="0.11" stop-color="#F37C7A"/>
<stop offset="0.55" stop-color="#F5886E"/>
<stop offset="1" stop-color="#F68D6A"/>
</linearGradient>
<linearGradient id="paint36_linear_90_475" x1="76.8545" y1="34.8078" x2="74.9936" y2="34.8078" gradientUnits="userSpaceOnUse">
<stop offset="0.02" stop-color="#7A55A3"/>
<stop offset="0.99" stop-color="#BD89BD"/>
</linearGradient>
<linearGradient id="paint37_linear_90_475" x1="82.6934" y1="34.7845" x2="80.8977" y2="34.7845" gradientUnits="userSpaceOnUse">
<stop offset="0.02" stop-color="#7A55A3"/>
<stop offset="0.99" stop-color="#BD89BD"/>
</linearGradient>
<linearGradient id="paint38_linear_90_475" x1="81.7797" y1="34.3468" x2="81.7797" y2="31.7855" gradientUnits="userSpaceOnUse">
<stop stop-color="#FEEADB"/>
<stop offset="0.99" stop-color="#B17EB7"/>
</linearGradient>
<linearGradient id="paint39_linear_90_475" x1="75.861" y1="34.3468" x2="75.861" y2="31.739" gradientUnits="userSpaceOnUse">
<stop stop-color="#FEEADB"/>
<stop offset="0.99" stop-color="#B17EB7"/>
</linearGradient>
<linearGradient id="paint40_linear_90_475" x1="79.042" y1="44.5547" x2="79.042" y2="39.6417" gradientUnits="userSpaceOnUse">
<stop stop-color="#F8C0D8"/>
<stop offset="0.99" stop-color="#B17EB7"/>
</linearGradient>
</defs>
</svg>
